<svg width="340" height="192" viewBox="0 0 340 192" fill="none" xmlns="http://www.w3.org/2000/svg">
<path d="M340 0H0V191.264H340V0Z" fill="url(#paint0_radial_124_3)"/>
<g style="mix-blend-mode:multiply">
<path d="M340 0H0V191.264H340V0Z" fill="url(#paint1_linear_124_3)"/>
</g>
<mask id="mask0_124_3" style="mask-type:luminance" maskUnits="userSpaceOnUse" x="0" y="0" width="340" height="192">
<path d="M340 0.0141602H0V191.264H340V0.0141602Z" fill="white"/>
</mask>
<g mask="url(#mask0_124_3)">
<g filter="url(#filter0_d_124_3)">
<path d="M217.72 220.361L223.536 210.676L229.385 201.013L241.129 181.712L252.944 162.455L258.876 152.841L264.84 143.246L259.025 152.931L253.178 162.596L241.432 181.896L229.615 201.153L223.683 210.766L217.72 220.361Z" fill="url(#paint2_linear_124_3)"/>
<path d="M203.205 234.99L204.632 232.551L206.07 230.12L208.948 225.259L214.754 215.569C218.626 209.109 222.544 202.677 226.465 196.247L232.371 186.618C234.352 183.416 236.316 180.204 238.315 177.011L244.29 167.423L247.304 162.646L248.811 160.257L250.329 157.875L248.901 160.314L247.464 162.745L244.586 167.606L238.779 177.296C236.851 180.529 234.889 183.743 232.943 186.968L227.069 196.617C223.134 203.038 219.199 209.461 215.218 215.852L209.244 225.44L206.231 230.217L204.724 232.606L203.207 234.988L203.205 234.99Z" fill="url(#paint3_linear_124_3)"/>
<path d="M230.432 208.169L236.249 198.486L242.096 188.82L253.842 169.52L265.657 150.262L271.589 140.648L277.554 131.054L271.736 140.739L265.889 150.404L254.143 169.704L242.328 188.962L236.396 198.574L230.432 208.169Z" fill="url(#paint4_linear_124_3)"/>
</g>
<g filter="url(#filter1_d_124_3)">
<path d="M92.5879 61.3063L98.4033 51.6216L104.252 41.9564L115.997 22.656L127.812 3.40001L133.744 -6.21385L139.708 -15.8082L133.893 -6.12354L128.044 3.54167L116.299 22.8402L104.483 42.098L98.5503 51.7119L92.5879 61.3063Z" fill="url(#paint5_linear_124_3)"/>
<path d="M95.5381 36.7377L101.353 27.053L107.203 17.3878L118.947 -1.9125L130.762 -21.1703L136.694 -30.7824L142.658 -40.3768L136.843 -30.6921L130.995 -21.0269L119.25 -1.72833L107.433 17.5295L101.5 27.1433L95.5381 36.7377Z" fill="url(#paint6_linear_124_3)"/>
<path d="M152.278 -44.0336L147.978 -36.8316L143.648 -29.6491L134.938 -15.316L126.158 -1.02535L121.743 6.1058L117.295 13.2157L121.594 6.01549L125.924 -1.16701L134.637 -15.5001L143.416 -29.7908L147.831 -36.9219L152.278 -44.0336Z" fill="url(#paint7_linear_124_3)"/>
<path d="M116.243 8.00592L115.432 9.43498L114.61 10.8587L112.965 13.7045C111.858 15.5957 110.748 17.4852 109.625 19.3658C108.511 21.2518 107.374 23.1253 106.248 25.0042L102.837 30.623L99.395 36.2224C98.2351 38.0818 97.0876 39.9482 95.9171 41.8005C94.7536 43.6581 93.5796 45.5069 92.402 47.3556L90.6205 50.1181L89.7298 51.4994L88.8267 52.8735L89.6377 51.4427L90.4594 50.0189L92.1045 47.1732C93.2112 45.282 94.3216 43.3925 95.4443 41.5119C96.5581 39.6259 97.695 37.7524 98.8212 35.8735L102.232 30.2564L105.676 24.6588C106.834 22.7995 107.984 20.933 109.154 19.0807C110.317 17.2231 111.492 15.3744 112.669 13.5256L114.451 10.7631L115.341 9.38186L116.243 8.00769V8.00592Z" fill="url(#paint8_linear_124_3)"/>
</g>
<g filter="url(#filter2_d_124_3)">
<path d="M151.525 144.767C151.782 144.767 151.991 144.559 151.991 144.302C151.991 144.044 151.782 143.836 151.525 143.836C151.268 143.836 151.059 144.044 151.059 144.302C151.059 144.559 151.268 144.767 151.525 144.767Z" fill="url(#paint9_radial_124_3)"/>
</g>
<path style="mix-blend-mode:overlay" opacity="0.5" d="M151.525 144.767C151.782 144.767 151.991 144.559 151.991 144.302C151.991 144.044 151.782 143.836 151.525 143.836C151.268 143.836 151.059 144.044 151.059 144.302C151.059 144.559 151.268 144.767 151.525 144.767Z" fill="url(#paint10_radial_124_3)"/>
<path d="M151.8 144.006C151.892 144.098 151.918 144.224 151.858 144.284C151.798 144.344 151.674 144.318 151.58 144.226C151.488 144.133 151.461 144.008 151.522 143.948C151.582 143.887 151.706 143.914 151.8 144.006Z" fill="url(#paint11_radial_124_3)"/>
<path opacity="0.5" d="M151.38 144.534C151.431 144.567 151.456 144.62 151.435 144.654C151.413 144.688 151.353 144.688 151.302 144.654C151.25 144.62 151.226 144.567 151.247 144.534C151.268 144.5 151.328 144.5 151.38 144.534Z" fill="url(#paint12_radial_124_3)"/>
<path opacity="0.5" d="M151.227 144.39C151.252 144.415 151.252 144.454 151.227 144.477C151.203 144.502 151.164 144.502 151.141 144.477C151.116 144.452 151.116 144.413 151.141 144.39C151.165 144.365 151.204 144.365 151.227 144.39Z" fill="url(#paint13_radial_124_3)"/>
<g filter="url(#filter3_d_124_3)">
<path d="M128.783 34.5643C129.168 33.9854 129.012 33.2038 128.433 32.8185C127.854 32.4332 127.072 32.5901 126.687 33.169C126.302 33.7478 126.459 34.5294 127.037 34.9147C127.616 35.3 128.398 35.1431 128.783 34.5643Z" fill="url(#paint14_radial_124_3)"/>
</g>
<path style="mix-blend-mode:overlay" opacity="0.5" d="M128.783 34.5643C129.168 33.9854 129.012 33.2038 128.433 32.8185C127.854 32.4332 127.072 32.5901 126.687 33.169C126.302 33.7478 126.459 34.5294 127.037 34.9147C127.616 35.3 128.398 35.1431 128.783 34.5643Z" fill="url(#paint15_radial_124_3)"/>
<path d="M128.481 33.065C128.732 33.3165 128.803 33.6529 128.638 33.8159C128.474 33.9805 128.139 33.9097 127.888 33.6583C127.636 33.4068 127.565 33.0703 127.73 32.9074C127.893 32.7427 128.229 32.8136 128.481 33.065Z" fill="url(#paint16_radial_124_3)"/>
<path opacity="0.5" d="M127.342 34.4976C127.482 34.5879 127.548 34.7331 127.489 34.8252C127.431 34.9173 127.27 34.9173 127.13 34.8288C126.99 34.7384 126.924 34.5932 126.983 34.5011C127.041 34.4091 127.202 34.4091 127.342 34.4976Z" fill="url(#paint17_radial_124_3)"/>
<path opacity="0.5" d="M126.93 34.108C126.995 34.1736 126.995 34.278 126.93 34.3436C126.864 34.4091 126.76 34.4091 126.694 34.3436C126.629 34.278 126.629 34.1736 126.694 34.108C126.76 34.0425 126.864 34.0425 126.93 34.108Z" fill="url(#paint18_radial_124_3)"/>
<g filter="url(#filter4_d_124_3)">
<path d="M55.9124 75.1169C56.6077 75.1169 57.1714 74.5532 57.1714 73.8579C57.1714 73.1625 56.6077 72.5988 55.9124 72.5988C55.217 72.5988 54.6533 73.1625 54.6533 73.8579C54.6533 74.5532 55.217 75.1169 55.9124 75.1169Z" fill="url(#paint19_radial_124_3)"/>
</g>
<path style="mix-blend-mode:overlay" opacity="0.5" d="M55.9124 75.1169C56.6077 75.1169 57.1714 74.5532 57.1714 73.8579C57.1714 73.1625 56.6077 72.5988 55.9124 72.5988C55.217 72.5988 54.6533 73.1625 54.6533 73.8579C54.6533 74.5532 55.217 75.1169 55.9124 75.1169Z" fill="url(#paint20_radial_124_3)"/>
<path d="M56.6561 73.0575C56.9076 73.309 56.9784 73.6454 56.8137 73.8083C56.649 73.9713 56.3143 73.9022 56.0629 73.6507C55.8114 73.3993 55.7406 73.0628 55.9053 72.8999C56.07 72.7352 56.4046 72.8061 56.6561 73.0575Z" fill="url(#paint21_radial_124_3)"/>
<path opacity="0.5" d="M55.519 74.4883C55.6589 74.5786 55.7244 74.7238 55.666 74.8159C55.6076 74.908 55.4464 74.908 55.3065 74.8195C55.1666 74.7292 55.1011 74.584 55.1595 74.4919C55.218 74.3998 55.3791 74.3998 55.519 74.4883Z" fill="url(#paint22_radial_124_3)"/>
<path opacity="0.5" d="M55.1064 74.0988C55.172 74.1643 55.172 74.2688 55.1064 74.3343C55.0409 74.3998 54.9364 74.3998 54.8709 74.3343C54.8054 74.2688 54.8054 74.1643 54.8709 74.0988C54.9364 74.0332 55.0409 74.0332 55.1064 74.0988Z" fill="url(#paint23_radial_124_3)"/>
<g filter="url(#filter5_d_124_3)">
<path d="M137.193 190.501C137.193 191.195 136.63 191.76 135.934 191.76C135.238 191.76 134.675 191.197 134.675 190.501C134.675 189.805 135.238 189.242 135.934 189.242C136.63 189.242 137.193 189.805 137.193 190.501Z" fill="url(#paint24_radial_124_3)"/>
</g>
<path style="mix-blend-mode:overlay" opacity="0.5" d="M137.193 190.501C137.193 191.195 136.63 191.76 135.934 191.76C135.238 191.76 134.675 191.197 134.675 190.501C134.675 189.805 135.238 189.242 135.934 189.242C136.63 189.242 137.193 189.805 137.193 190.501Z" fill="url(#paint25_radial_124_3)"/>
<path d="M136.678 189.702C136.93 189.954 137 190.29 136.836 190.453C136.671 190.616 136.336 190.547 136.085 190.296C135.833 190.044 135.763 189.708 135.927 189.545C136.09 189.38 136.427 189.451 136.678 189.702Z" fill="url(#paint26_radial_124_3)"/>
<path opacity="0.5" d="M135.54 191.133C135.679 191.223 135.745 191.369 135.687 191.461C135.628 191.553 135.467 191.553 135.327 191.464C135.187 191.374 135.122 191.229 135.18 191.137C135.238 191.045 135.4 191.045 135.54 191.133Z" fill="url(#paint27_radial_124_3)"/>
<path opacity="0.5" d="M135.129 190.744C135.194 190.809 135.194 190.914 135.129 190.979C135.063 191.045 134.959 191.045 134.893 190.979C134.828 190.914 134.828 190.809 134.893 190.744C134.959 190.678 135.063 190.678 135.129 190.744Z" fill="url(#paint28_radial_124_3)"/>
<g filter="url(#filter6_d_124_3)">
<path d="M77.2049 173.28C77.9002 173.28 78.4639 172.716 78.4639 172.021C78.4639 171.325 77.9002 170.761 77.2049 170.761C76.5095 170.761 75.9458 171.325 75.9458 172.021C75.9458 172.716 76.5095 173.28 77.2049 173.28Z" fill="url(#paint29_radial_124_3)"/>
</g>
<path style="mix-blend-mode:overlay" opacity="0.5" d="M77.2049 173.28C77.9002 173.28 78.4639 172.716 78.4639 172.021C78.4639 171.325 77.9002 170.761 77.2049 170.761C76.5095 170.761 75.9458 171.325 75.9458 172.021C75.9458 172.716 76.5095 173.28 77.2049 173.28Z" fill="url(#paint30_radial_124_3)"/>
<path d="M77.9486 171.22C78.2001 171.472 78.2709 171.808 78.1062 171.971C77.9433 172.136 77.6068 172.065 77.3554 171.813C77.1039 171.562 77.0331 171.225 77.1978 171.063C77.3624 170.898 77.6971 170.969 77.9486 171.22Z" fill="url(#paint31_radial_124_3)"/>
<path opacity="0.5" d="M76.8096 172.651C76.9494 172.741 77.015 172.887 76.9565 172.979C76.8981 173.071 76.737 173.071 76.5971 172.982C76.4572 172.892 76.3916 172.747 76.4501 172.655C76.5085 172.562 76.6697 172.562 76.8096 172.651Z" fill="url(#paint32_radial_124_3)"/>
<path opacity="0.5" d="M76.3975 172.261C76.463 172.327 76.463 172.431 76.3975 172.497C76.3319 172.562 76.2275 172.562 76.1619 172.497C76.0964 172.431 76.0964 172.327 76.1619 172.261C76.2275 172.196 76.3319 172.196 76.3975 172.261Z" fill="url(#paint33_radial_124_3)"/>
<g filter="url(#filter7_d_124_3)">
<path d="M249.514 79.0765C250.209 79.0765 250.773 78.5128 250.773 77.8175C250.773 77.1221 250.209 76.5584 249.514 76.5584C248.819 76.5584 248.255 77.1221 248.255 77.8175C248.255 78.5128 248.819 79.0765 249.514 79.0765Z" fill="url(#paint34_radial_124_3)"/>
</g>
<path style="mix-blend-mode:overlay" opacity="0.5" d="M249.514 79.0765C250.209 79.0765 250.773 78.5128 250.773 77.8175C250.773 77.1221 250.209 76.5584 249.514 76.5584C248.819 76.5584 248.255 77.1221 248.255 77.8175C248.255 78.5128 248.819 79.0765 249.514 79.0765Z" fill="url(#paint35_radial_124_3)"/>
<path d="M250.258 77.0189C250.509 77.2703 250.58 77.6068 250.415 77.7697C250.251 77.9344 249.916 77.8636 249.664 77.6121C249.413 77.3606 249.342 77.0242 249.507 76.8613C249.672 76.6966 250.006 76.7674 250.258 77.0189Z" fill="url(#paint36_radial_124_3)"/>
<path opacity="0.5" d="M249.121 78.4497C249.26 78.54 249.326 78.6852 249.268 78.7773C249.209 78.8694 249.048 78.8694 248.908 78.7808C248.768 78.6905 248.703 78.5453 248.761 78.4532C248.82 78.3612 248.981 78.3612 249.121 78.4497Z" fill="url(#paint37_radial_124_3)"/>
<path opacity="0.5" d="M248.708 78.0601C248.774 78.1256 248.774 78.2301 248.708 78.2956C248.642 78.3612 248.538 78.3612 248.472 78.2956C248.407 78.2301 248.407 78.1256 248.472 78.0601C248.538 77.9946 248.642 77.9946 248.708 78.0601Z" fill="url(#paint38_radial_124_3)"/>
<g filter="url(#filter8_d_124_3)">
<path d="M93.847 125.906C94.5423 125.906 95.106 125.343 95.106 124.647C95.106 123.952 94.5423 123.388 93.847 123.388C93.1516 123.388 92.5879 123.952 92.5879 124.647C92.5879 125.343 93.1516 125.906 93.847 125.906Z" fill="url(#paint39_radial_124_3)"/>
</g>
<path style="mix-blend-mode:overlay" opacity="0.5" d="M93.847 125.906C94.5423 125.906 95.106 125.343 95.106 124.647C95.106 123.952 94.5423 123.388 93.847 123.388C93.1516 123.388 92.5879 123.952 92.5879 124.647C92.5879 125.343 93.1516 125.906 93.847 125.906Z" fill="url(#paint40_radial_124_3)"/>
<path d="M94.5912 123.847C94.8426 124.098 94.9135 124.435 94.7488 124.598C94.5859 124.762 94.2494 124.692 93.9979 124.44C93.7465 124.189 93.6756 123.852 93.8403 123.689C94.005 123.525 94.3397 123.595 94.5912 123.847Z" fill="url(#paint41_radial_124_3)"/>
<path opacity="0.5" d="M93.4521 125.279C93.592 125.37 93.6575 125.515 93.5991 125.607C93.5407 125.699 93.3795 125.699 93.2396 125.61C93.0997 125.52 93.0342 125.375 93.0927 125.283C93.1511 125.191 93.3122 125.191 93.4521 125.279Z" fill="url(#paint42_radial_124_3)"/>
<path opacity="0.5" d="M93.0415 124.89C93.107 124.955 93.107 125.06 93.0415 125.125C92.976 125.191 92.8715 125.191 92.806 125.125C92.7405 125.06 92.7405 124.955 92.806 124.89C92.8715 124.824 92.976 124.824 93.0415 124.89Z" fill="url(#paint43_radial_124_3)"/>
<g filter="url(#filter9_d_124_3)">
<path d="M332.899 126.999C332.899 127.693 332.336 128.258 331.64 128.258C330.944 128.258 330.381 127.695 330.381 126.999C330.381 126.303 330.944 125.74 331.64 125.74C332.336 125.74 332.899 126.303 332.899 126.999Z" fill="url(#paint44_radial_124_3)"/>
</g>
<path style="mix-blend-mode:overlay" opacity="0.5" d="M332.899 126.999C332.899 127.693 332.336 128.258 331.64 128.258C330.944 128.258 330.381 127.695 330.381 126.999C330.381 126.303 330.944 125.74 331.64 125.74C332.336 125.74 332.899 126.303 332.899 126.999Z" fill="url(#paint45_radial_124_3)"/>
<path d="M332.385 126.2C332.637 126.452 332.707 126.788 332.543 126.951C332.378 127.116 332.043 127.045 331.792 126.793C331.54 126.542 331.47 126.206 331.634 126.043C331.799 125.878 332.134 125.949 332.385 126.2Z" fill="url(#paint46_radial_124_3)"/>
<path opacity="0.5" d="M331.247 127.631C331.386 127.721 331.452 127.867 331.394 127.959C331.335 128.051 331.174 128.051 331.034 127.962C330.894 127.872 330.829 127.727 330.887 127.635C330.946 127.542 331.107 127.542 331.247 127.631Z" fill="url(#paint47_radial_124_3)"/>
<path opacity="0.5" d="M330.834 127.241C330.899 127.307 330.899 127.411 330.834 127.477C330.768 127.542 330.664 127.542 330.598 127.477C330.533 127.411 330.533 127.307 330.598 127.241C330.664 127.176 330.768 127.176 330.834 127.241Z" fill="url(#paint48_radial_124_3)"/>
<g filter="url(#filter10_d_124_3)">
<path d="M0.536406 43.5076C1.23177 43.5076 1.79547 42.9439 1.79547 42.2486C1.79547 41.5532 1.23177 40.9895 0.536406 40.9895C-0.158955 40.9895 -0.722656 41.5532 -0.722656 42.2486C-0.722656 42.9439 -0.158955 43.5076 0.536406 43.5076Z" fill="url(#paint49_radial_124_3)"/>
</g>
<path style="mix-blend-mode:overlay" opacity="0.5" d="M0.536406 43.5076C1.23177 43.5076 1.79547 42.9439 1.79547 42.2486C1.79547 41.5532 1.23177 40.9895 0.536406 40.9895C-0.158955 40.9895 -0.722656 41.5532 -0.722656 42.2486C-0.722656 42.9439 -0.158955 43.5076 0.536406 43.5076Z" fill="url(#paint50_radial_124_3)"/>
<path d="M1.28209 41.4481C1.53354 41.6995 1.60438 42.036 1.43969 42.1989C1.275 42.3636 0.940316 42.2928 0.688857 42.0413C0.437399 41.7899 0.366566 41.4534 0.531253 41.2905C0.695941 41.1276 1.03063 41.1966 1.28209 41.4481Z" fill="url(#paint51_radial_124_3)"/>
<path opacity="0.5" d="M0.143537 42.8807C0.283432 42.971 0.348953 43.1163 0.290516 43.2083C0.232078 43.3004 0.0709323 43.3004 -0.0689635 43.2119C-0.208859 43.1216 -0.27438 42.9764 -0.215943 42.8843C-0.157505 42.7922 0.00364075 42.7922 0.143537 42.8807Z" fill="url(#paint52_radial_124_3)"/>
<g filter="url(#filter11_d_124_3)">
<path d="M74.7274 9.73072C74.9847 9.73072 75.1932 9.5222 75.1932 9.26499C75.1932 9.00777 74.9847 8.79926 74.7274 8.79926C74.4702 8.79926 74.2617 9.00777 74.2617 9.26499C74.2617 9.5222 74.4702 9.73072 74.7274 9.73072Z" fill="url(#paint53_radial_124_3)"/>
</g>
<path style="mix-blend-mode:overlay" opacity="0.5" d="M74.7274 9.73072C74.9847 9.73072 75.1932 9.5222 75.1932 9.26499C75.1932 9.00777 74.9847 8.79926 74.7274 8.79926C74.4702 8.79926 74.2617 9.00777 74.2617 9.26499C74.2617 9.5222 74.4702 9.73072 74.7274 9.73072Z" fill="url(#paint54_radial_124_3)"/>
<path d="M75.0037 8.96925C75.0957 9.06134 75.1223 9.18707 75.0621 9.24728C75.0019 9.30748 74.8779 9.28092 74.7841 9.18884C74.692 9.09675 74.6654 8.97103 74.7256 8.91082C74.7858 8.85062 74.9098 8.87717 75.0037 8.96925Z" fill="url(#paint55_radial_124_3)"/>
<path opacity="0.5" d="M74.5823 9.49698C74.6337 9.53062 74.6585 9.58374 74.6372 9.61739C74.616 9.65104 74.5558 9.65104 74.5044 9.61739C74.4531 9.58374 74.4283 9.53062 74.4495 9.49698C74.4708 9.46333 74.531 9.46333 74.5823 9.49698Z" fill="url(#paint56_radial_124_3)"/>
<path opacity="0.5" d="M74.4296 9.35355C74.4544 9.37835 74.4544 9.4173 74.4296 9.44032C74.4048 9.46512 74.3658 9.46512 74.3428 9.44032C74.318 9.41553 74.318 9.37658 74.3428 9.35355C74.3676 9.32876 74.4066 9.32876 74.4296 9.35355Z" fill="url(#paint57_radial_124_3)"/>
</g>
<defs>
<filter id="filter0_d_124_3" x="154.273" y="130.054" width="124.28" height="192.492" filterUnits="userSpaceOnUse" color-interpolation-filters="sRGB">
<feFlood flood-opacity="0" result="BackgroundImageFix"/>
<feColorMatrix in="SourceAlpha" type="matrix" values="0 0 0 0 0 0 0 0 0 0 0 0 0 0 0 0 0 0 127 0" result="hardAlpha"/>
<feOffset dx="-5" dy="5"/>
<feGaussianBlur stdDeviation="3"/>
<feColorMatrix type="matrix" values="0 0 0 0 0.0823529 0 0 0 0 0.0823529 0 0 0 0 0.0980392 0 0 0 0.6 0"/>
<feBlend mode="normal" in2="BackgroundImageFix" result="effect1_dropShadow_124_3"/>
<feBlend mode="normal" in="SourceGraphic" in2="effect1_dropShadow_124_3" result="shape"/>
</filter>
<filter id="filter1_d_124_3" x="77.8267" y="-121.031" width="124.28" height="193.337" filterUnits="userSpaceOnUse" color-interpolation-filters="sRGB">
<feFlood flood-opacity="0" result="BackgroundImageFix"/>
<feColorMatrix in="SourceAlpha" type="matrix" values="0 0 0 0 0 0 0 0 0 0 0 0 0 0 0 0 0 0 127 0" result="hardAlpha"/>
<feOffset dx="-5" dy="5"/>
<feGaussianBlur stdDeviation="3"/>
<feColorMatrix type="matrix" values="0 0 0 0 0.0823529 0 0 0 0 0.0823529 0 0 0 0 0.0980392 0 0 0 0.6 0"/>
<feBlend mode="normal" in2="BackgroundImageFix" result="effect1_dropShadow_124_3"/>
<feBlend mode="normal" in="SourceGraphic" in2="effect1_dropShadow_124_3" result="shape"/>
</filter>
<filter id="filter2_d_124_3" x="148.549" y="143.836" width="3.85164" height="3.96146" filterUnits="userSpaceOnUse" color-interpolation-filters="sRGB">
<feFlood flood-opacity="0" result="BackgroundImageFix"/>
<feColorMatrix in="SourceAlpha" type="matrix" values="0 0 0 0 0 0 0 0 0 0 0 0 0 0 0 0 0 0 127 0" result="hardAlpha"/>
<feOffset dx="-1.05" dy="1.57"/>
<feGaussianBlur stdDeviation="0.73"/>
<feColorMatrix type="matrix" values="0 0 0 0 0.0823529 0 0 0 0 0.0823529 0 0 0 0 0.0980392 0 0 0 0.6 0"/>
<feBlend mode="normal" in2="BackgroundImageFix" result="effect1_dropShadow_124_3"/>
<feBlend mode="normal" in="SourceGraphic" in2="effect1_dropShadow_124_3" result="shape"/>
</filter>
<filter id="filter3_d_124_3" x="119.656" y="32.6074" width="10.4786" height="10.7584" filterUnits="userSpaceOnUse" color-interpolation-filters="sRGB">
<feFlood flood-opacity="0" result="BackgroundImageFix"/>
<feColorMatrix in="SourceAlpha" type="matrix" values="0 0 0 0 0 0 0 0 0 0 0 0 0 0 0 0 0 0 127 0" result="hardAlpha"/>
<feOffset dx="-2.84" dy="4.26"/>
<feGaussianBlur stdDeviation="1.99"/>
<feColorMatrix type="matrix" values="0 0 0 0 0.0823529 0 0 0 0 0.0823529 0 0 0 0 0.0980392 0 0 0 0.6 0"/>
<feBlend mode="normal" in2="BackgroundImageFix" result="effect1_dropShadow_124_3"/>
<feBlend mode="normal" in="SourceGraphic" in2="effect1_dropShadow_124_3" result="shape"/>
</filter>
<filter id="filter4_d_124_3" x="47.8333" y="72.5988" width="10.4781" height="10.7581" filterUnits="userSpaceOnUse" color-interpolation-filters="sRGB">
<feFlood flood-opacity="0" result="BackgroundImageFix"/>
<feColorMatrix in="SourceAlpha" type="matrix" values="0 0 0 0 0 0 0 0 0 0 0 0 0 0 0 0 0 0 127 0" result="hardAlpha"/>
<feOffset dx="-2.84" dy="4.26"/>
<feGaussianBlur stdDeviation="1.99"/>
<feColorMatrix type="matrix" values="0 0 0 0 0.0823529 0 0 0 0 0.0823529 0 0 0 0 0.0980392 0 0 0 0.6 0"/>
<feBlend mode="normal" in2="BackgroundImageFix" result="effect1_dropShadow_124_3"/>
<feBlend mode="normal" in="SourceGraphic" in2="effect1_dropShadow_124_3" result="shape"/>
</filter>
<filter id="filter5_d_124_3" x="127.855" y="189.242" width="10.4781" height="10.7581" filterUnits="userSpaceOnUse" color-interpolation-filters="sRGB">
<feFlood flood-opacity="0" result="BackgroundImageFix"/>
<feColorMatrix in="SourceAlpha" type="matrix" values="0 0 0 0 0 0 0 0 0 0 0 0 0 0 0 0 0 0 127 0" result="hardAlpha"/>
<feOffset dx="-2.84" dy="4.26"/>
<feGaussianBlur stdDeviation="1.99"/>
<feColorMatrix type="matrix" values="0 0 0 0 0.0823529 0 0 0 0 0.0823529 0 0 0 0 0.0980392 0 0 0 0.6 0"/>
<feBlend mode="normal" in2="BackgroundImageFix" result="effect1_dropShadow_124_3"/>
<feBlend mode="normal" in="SourceGraphic" in2="effect1_dropShadow_124_3" result="shape"/>
</filter>
<filter id="filter6_d_124_3" x="69.1258" y="170.761" width="10.4781" height="10.7581" filterUnits="userSpaceOnUse" color-interpolation-filters="sRGB">
<feFlood flood-opacity="0" result="BackgroundImageFix"/>
<feColorMatrix in="SourceAlpha" type="matrix" values="0 0 0 0 0 0 0 0 0 0 0 0 0 0 0 0 0 0 127 0" result="hardAlpha"/>
<feOffset dx="-2.84" dy="4.26"/>
<feGaussianBlur stdDeviation="1.99"/>
<feColorMatrix type="matrix" values="0 0 0 0 0.0823529 0 0 0 0 0.0823529 0 0 0 0 0.0980392 0 0 0 0.6 0"/>
<feBlend mode="normal" in2="BackgroundImageFix" result="effect1_dropShadow_124_3"/>
<feBlend mode="normal" in="SourceGraphic" in2="effect1_dropShadow_124_3" result="shape"/>
</filter>
<filter id="filter7_d_124_3" x="241.435" y="76.5584" width="10.4781" height="10.7581" filterUnits="userSpaceOnUse" color-interpolation-filters="sRGB">
<feFlood flood-opacity="0" result="BackgroundImageFix"/>
<feColorMatrix in="SourceAlpha" type="matrix" values="0 0 0 0 0 0 0 0 0 0 0 0 0 0 0 0 0 0 127 0" result="hardAlpha"/>
<feOffset dx="-2.84" dy="4.26"/>
<feGaussianBlur stdDeviation="1.99"/>
<feColorMatrix type="matrix" values="0 0 0 0 0.0823529 0 0 0 0 0.0823529 0 0 0 0 0.0980392 0 0 0 0.6 0"/>
<feBlend mode="normal" in2="BackgroundImageFix" result="effect1_dropShadow_124_3"/>
<feBlend mode="normal" in="SourceGraphic" in2="effect1_dropShadow_124_3" result="shape"/>
</filter>
<filter id="filter8_d_124_3" x="85.7679" y="123.388" width="10.4781" height="10.7581" filterUnits="userSpaceOnUse" color-interpolation-filters="sRGB">
<feFlood flood-opacity="0" result="BackgroundImageFix"/>
<feColorMatrix in="SourceAlpha" type="matrix" values="0 0 0 0 0 0 0 0 0 0 0 0 0 0 0 0 0 0 127 0" result="hardAlpha"/>
<feOffset dx="-2.84" dy="4.26"/>
<feGaussianBlur stdDeviation="1.99"/>
<feColorMatrix type="matrix" values="0 0 0 0 0.0823529 0 0 0 0 0.0823529 0 0 0 0 0.0980392 0 0 0 0.6 0"/>
<feBlend mode="normal" in2="BackgroundImageFix" result="effect1_dropShadow_124_3"/>
<feBlend mode="normal" in="SourceGraphic" in2="effect1_dropShadow_124_3" result="shape"/>
</filter>
<filter id="filter9_d_124_3" x="323.561" y="125.74" width="10.4781" height="10.7581" filterUnits="userSpaceOnUse" color-interpolation-filters="sRGB">
<feFlood flood-opacity="0" result="BackgroundImageFix"/>
<feColorMatrix in="SourceAlpha" type="matrix" values="0 0 0 0 0 0 0 0 0 0 0 0 0 0 0 0 0 0 127 0" result="hardAlpha"/>
<feOffset dx="-2.84" dy="4.26"/>
<feGaussianBlur stdDeviation="1.99"/>
<feColorMatrix type="matrix" values="0 0 0 0 0.0823529 0 0 0 0 0.0823529 0 0 0 0 0.0980392 0 0 0 0.6 0"/>
<feBlend mode="normal" in2="BackgroundImageFix" result="effect1_dropShadow_124_3"/>
<feBlend mode="normal" in="SourceGraphic" in2="effect1_dropShadow_124_3" result="shape"/>
</filter>
<filter id="filter10_d_124_3" x="-7.54266" y="40.9895" width="10.4781" height="10.7581" filterUnits="userSpaceOnUse" color-interpolation-filters="sRGB">
<feFlood flood-opacity="0" result="BackgroundImageFix"/>
<feColorMatrix in="SourceAlpha" type="matrix" values="0 0 0 0 0 0 0 0 0 0 0 0 0 0 0 0 0 0 127 0" result="hardAlpha"/>
<feOffset dx="-2.84" dy="4.26"/>
<feGaussianBlur stdDeviation="1.99"/>
<feColorMatrix type="matrix" values="0 0 0 0 0.0823529 0 0 0 0 0.0823529 0 0 0 0 0.0980392 0 0 0 0.6 0"/>
<feBlend mode="normal" in2="BackgroundImageFix" result="effect1_dropShadow_124_3"/>
<feBlend mode="normal" in="SourceGraphic" in2="effect1_dropShadow_124_3" result="shape"/>
</filter>
<filter id="filter11_d_124_3" x="71.7517" y="8.79926" width="3.85164" height="3.96146" filterUnits="userSpaceOnUse" color-interpolation-filters="sRGB">
<feFlood flood-opacity="0" result="BackgroundImageFix"/>
<feColorMatrix in="SourceAlpha" type="matrix" values="0 0 0 0 0 0 0 0 0 0 0 0 0 0 0 0 0 0 127 0" result="hardAlpha"/>
<feOffset dx="-1.05" dy="1.57"/>
<feGaussianBlur stdDeviation="0.73"/>
<feColorMatrix type="matrix" values="0 0 0 0 0.0823529 0 0 0 0 0.0823529 0 0 0 0 0.0980392 0 0 0 0.6 0"/>
<feBlend mode="normal" in2="BackgroundImageFix" result="effect1_dropShadow_124_3"/>
<feBlend mode="normal" in="SourceGraphic" in2="effect1_dropShadow_124_3" result="shape"/>
</filter>
<radialGradient id="paint0_radial_124_3" cx="0" cy="0" r="1" gradientUnits="userSpaceOnUse" gradientTransform="translate(170.002 95.5999) scale(176.573 148.984)">
<stop stop-color="#313337"/>
<stop offset="0.19" stop-color="#2B2D30"/>
<stop offset="1" stop-color="#181818"/>
</radialGradient>
<linearGradient id="paint1_linear_124_3" x1="178.612" y1="120.812" x2="137.739" y2="1.31218" gradientUnits="userSpaceOnUse">
<stop stop-color="white"/>
<stop offset="0.13" stop-color="#FBFBFB"/>
<stop offset="0.25" stop-color="#EFEFEF"/>
<stop offset="0.38" stop-color="#DBDBDB"/>
<stop offset="0.5" stop-color="#BFBFBF"/>
<stop offset="0.63" stop-color="#9C9C9C"/>
<stop offset="0.75" stop-color="#707070"/>
<stop offset="0.88" stop-color="#3C3C3C"/>
<stop offset="1"/>
</linearGradient>
<linearGradient id="paint2_linear_124_3" x1="248.809" y1="212.983" x2="233.752" y2="150.624" gradientUnits="userSpaceOnUse">
<stop stop-color="#D3A328"/>
<stop offset="0.3" stop-color="#F7EB85"/>
<stop offset="0.64" stop-color="#D3A328"/>
<stop offset="1" stop-color="#DE912F"/>
</linearGradient>
<linearGradient id="paint3_linear_124_3" x1="234.322" y1="227.733" x2="219.208" y2="165.13" gradientUnits="userSpaceOnUse">
<stop stop-color="#D3A328"/>
<stop offset="0.3" stop-color="#F7EB85"/>
<stop offset="0.64" stop-color="#D3A328"/>
<stop offset="1" stop-color="#DE912F"/>
</linearGradient>
<linearGradient id="paint4_linear_124_3" x1="261.52" y1="200.793" x2="246.465" y2="138.431" gradientUnits="userSpaceOnUse">
<stop stop-color="#D3A328"/>
<stop offset="0.3" stop-color="#F7EB85"/>
<stop offset="0.64" stop-color="#D3A328"/>
<stop offset="1" stop-color="#DE912F"/>
</linearGradient>
<linearGradient id="paint5_linear_124_3" x1="123.677" y1="53.929" x2="108.619" y2="-8.43093" gradientUnits="userSpaceOnUse">
<stop stop-color="#D3A328"/>
<stop offset="0.3" stop-color="#F7EB85"/>
<stop offset="0.64" stop-color="#D3A328"/>
<stop offset="1" stop-color="#DE912F"/>
</linearGradient>
<linearGradient id="paint6_linear_124_3" x1="126.627" y1="29.3604" x2="111.569" y2="-32.9995" gradientUnits="userSpaceOnUse">
<stop stop-color="#D3A328"/>
<stop offset="0.3" stop-color="#F7EB85"/>
<stop offset="0.64" stop-color="#D3A328"/>
<stop offset="1" stop-color="#DE912F"/>
</linearGradient>
<linearGradient id="paint7_linear_124_3" x1="140.383" y1="7.77039" x2="129.19" y2="-38.5883" gradientUnits="userSpaceOnUse">
<stop stop-color="#D3A328"/>
<stop offset="0.3" stop-color="#F7EB85"/>
<stop offset="0.64" stop-color="#D3A328"/>
<stop offset="1" stop-color="#DE912F"/>
</linearGradient>
<linearGradient id="paint8_linear_124_3" x1="106.956" y1="48.751" x2="98.1129" y2="12.1249" gradientUnits="userSpaceOnUse">
<stop stop-color="#D3A328"/>
<stop offset="0.3" stop-color="#F7EB85"/>
<stop offset="0.64" stop-color="#D3A328"/>
<stop offset="1" stop-color="#DE912F"/>
</linearGradient>
<radialGradient id="paint9_radial_124_3" cx="0" cy="0" r="1" gradientUnits="userSpaceOnUse" gradientTransform="translate(151.514 144.477) rotate(16.69) scale(0.619793 0.588803)">
<stop stop-color="#E4C54C"/>
<stop offset="0.21" stop-color="#DBB543"/>
<stop offset="0.62" stop-color="#C48C2D"/>
<stop offset="1" stop-color="#AD6217"/>
</radialGradient>
<radialGradient id="paint10_radial_124_3" cx="0" cy="0" r="1" gradientUnits="userSpaceOnUse" gradientTransform="translate(151.875 143.204) rotate(16.69) scale(0.563126 0.664489)">
<stop offset="0.57" stop-color="white" stop-opacity="0"/>
<stop offset="0.6" stop-color="white" stop-opacity="0.06"/>
<stop offset="0.65" stop-color="white" stop-opacity="0.23"/>
<stop offset="0.73" stop-color="white" stop-opacity="0.5"/>
<stop offset="0.82" stop-color="white" stop-opacity="0.86"/>
<stop offset="0.86" stop-color="white"/>
<stop offset="0.87" stop-color="white" stop-opacity="0.97"/>
<stop offset="0.89" stop-color="white" stop-opacity="0.89"/>
<stop offset="0.91" stop-color="white" stop-opacity="0.76"/>
<stop offset="0.94" stop-color="white" stop-opacity="0.58"/>
<stop offset="0.96" stop-color="white" stop-opacity="0.35"/>
<stop offset="0.99" stop-color="white" stop-opacity="0.07"/>
<stop offset="1" stop-color="white" stop-opacity="0"/>
</radialGradient>
<radialGradient id="paint11_radial_124_3" cx="0" cy="0" r="1" gradientUnits="userSpaceOnUse" gradientTransform="translate(151.439 143.846) rotate(-40.47) scale(0.152293 0.22387)">
<stop stop-color="#F7EB85"/>
<stop offset="1" stop-color="#F7EB85" stop-opacity="0"/>
</radialGradient>
<radialGradient id="paint12_radial_124_3" cx="0" cy="0" r="1" gradientUnits="userSpaceOnUse" gradientTransform="translate(151.08 144.406) rotate(-52.8781) scale(0.0708301 0.104122)">
<stop stop-color="#F7EB85"/>
<stop offset="1" stop-color="#F7EB85" stop-opacity="0"/>
</radialGradient>
<radialGradient id="paint13_radial_124_3" cx="0" cy="0" r="1" gradientUnits="userSpaceOnUse" gradientTransform="translate(159.817 136.203) rotate(-42.04) scale(0.0602075 0.0577992)">
<stop stop-color="#F7EB85"/>
<stop offset="1" stop-color="#F7EB85" stop-opacity="0"/>
</radialGradient>
<radialGradient id="paint14_radial_124_3" cx="0" cy="0" r="1" gradientUnits="userSpaceOnUse" gradientTransform="translate(127.85 33.7417) rotate(16.6899) scale(1.67875 1.59482)">
<stop stop-color="#E4C54C"/>
<stop offset="0.21" stop-color="#DBB543"/>
<stop offset="0.62" stop-color="#C48C2D"/>
<stop offset="1" stop-color="#AD6217"/>
</radialGradient>
<radialGradient id="paint15_radial_124_3" cx="0" cy="0" r="1" gradientUnits="userSpaceOnUse" gradientTransform="translate(128.023 32.9508) rotate(16.6899) scale(1.52646 1.80122)">
<stop offset="0.57" stop-color="white" stop-opacity="0"/>
<stop offset="0.6" stop-color="white" stop-opacity="0.06"/>
<stop offset="0.65" stop-color="white" stop-opacity="0.23"/>
<stop offset="0.73" stop-color="white" stop-opacity="0.5"/>
<stop offset="0.82" stop-color="white" stop-opacity="0.86"/>
<stop offset="0.86" stop-color="white"/>
<stop offset="0.87" stop-color="white" stop-opacity="0.97"/>
<stop offset="0.89" stop-color="white" stop-opacity="0.89"/>
<stop offset="0.91" stop-color="white" stop-opacity="0.76"/>
<stop offset="0.94" stop-color="white" stop-opacity="0.58"/>
<stop offset="0.96" stop-color="white" stop-opacity="0.35"/>
<stop offset="0.99" stop-color="white" stop-opacity="0.07"/>
<stop offset="1" stop-color="white" stop-opacity="0"/>
</radialGradient>
<radialGradient id="paint16_radial_124_3" cx="0" cy="0" r="1" gradientUnits="userSpaceOnUse" gradientTransform="translate(128.063 33.2434) rotate(-40.4701) scale(0.412604 0.606529)">
<stop stop-color="#F7EB85"/>
<stop offset="1" stop-color="#F7EB85" stop-opacity="0"/>
</radialGradient>
<radialGradient id="paint17_radial_124_3" cx="0" cy="0" r="1" gradientUnits="userSpaceOnUse" gradientTransform="translate(127.112 34.5689) rotate(-52.8797) scale(0.193022 0.283743)">
<stop stop-color="#F7EB85"/>
<stop offset="1" stop-color="#F7EB85" stop-opacity="0"/>
</radialGradient>
<radialGradient id="paint18_radial_124_3" cx="0" cy="0" r="1" gradientUnits="userSpaceOnUse" gradientTransform="translate(128.495 32.6381) rotate(-42.0409) scale(0.162915 0.156399)">
<stop stop-color="#F7EB85"/>
<stop offset="1" stop-color="#F7EB85" stop-opacity="0"/>
</radialGradient>
<radialGradient id="paint19_radial_124_3" cx="0" cy="0" r="1" gradientUnits="userSpaceOnUse" gradientTransform="translate(56.0154 73.7826) rotate(16.69) scale(1.67875 1.59481)">
<stop stop-color="#E4C54C"/>
<stop offset="0.21" stop-color="#DBB543"/>
<stop offset="0.62" stop-color="#C48C2D"/>
<stop offset="1" stop-color="#AD6217"/>
</radialGradient>
<radialGradient id="paint20_radial_124_3" cx="0" cy="0" r="1" gradientUnits="userSpaceOnUse" gradientTransform="translate(56.2455 72.8015) rotate(16.69) scale(1.52646 1.80122)">
<stop offset="0.57" stop-color="white" stop-opacity="0"/>
<stop offset="0.6" stop-color="white" stop-opacity="0.06"/>
<stop offset="0.65" stop-color="white" stop-opacity="0.23"/>
<stop offset="0.73" stop-color="white" stop-opacity="0.5"/>
<stop offset="0.82" stop-color="white" stop-opacity="0.86"/>
<stop offset="0.86" stop-color="white"/>
<stop offset="0.87" stop-color="white" stop-opacity="0.97"/>
<stop offset="0.89" stop-color="white" stop-opacity="0.89"/>
<stop offset="0.91" stop-color="white" stop-opacity="0.76"/>
<stop offset="0.94" stop-color="white" stop-opacity="0.58"/>
<stop offset="0.96" stop-color="white" stop-opacity="0.35"/>
<stop offset="0.99" stop-color="white" stop-opacity="0.07"/>
<stop offset="1" stop-color="white" stop-opacity="0"/>
</radialGradient>
<radialGradient id="paint21_radial_124_3" cx="0" cy="0" r="1" gradientUnits="userSpaceOnUse" gradientTransform="translate(56.2679 73.2674) rotate(-40.47) scale(0.412604 0.606528)">
<stop stop-color="#F7EB85"/>
<stop offset="1" stop-color="#F7EB85" stop-opacity="0"/>
</radialGradient>
<radialGradient id="paint22_radial_124_3" cx="0" cy="0" r="1" gradientUnits="userSpaceOnUse" gradientTransform="translate(55.3493 74.6088) rotate(-52.8798) scale(0.193019 0.283739)">
<stop stop-color="#F7EB85"/>
<stop offset="1" stop-color="#F7EB85" stop-opacity="0"/>
</radialGradient>
<radialGradient id="paint23_radial_124_3" cx="0" cy="0" r="1" gradientUnits="userSpaceOnUse" gradientTransform="translate(54.9003 74.3102) rotate(-42.0395) scale(0.162914 0.156397)">
<stop stop-color="#F7EB85"/>
<stop offset="1" stop-color="#F7EB85" stop-opacity="0"/>
</radialGradient>
<radialGradient id="paint24_radial_124_3" cx="0" cy="0" r="1" gradientUnits="userSpaceOnUse" gradientTransform="translate(136.009 190.552) rotate(16.6899) scale(1.67875 1.59481)">
<stop stop-color="#E4C54C"/>
<stop offset="0.21" stop-color="#DBB543"/>
<stop offset="0.62" stop-color="#C48C2D"/>
<stop offset="1" stop-color="#AD6217"/>
</radialGradient>
<radialGradient id="paint25_radial_124_3" cx="0" cy="0" r="1" gradientUnits="userSpaceOnUse" gradientTransform="translate(136.405 189.018) rotate(16.6899) scale(1.52646 1.80122)">
<stop offset="0.57" stop-color="white" stop-opacity="0"/>
<stop offset="0.6" stop-color="white" stop-opacity="0.06"/>
<stop offset="0.65" stop-color="white" stop-opacity="0.23"/>
<stop offset="0.73" stop-color="white" stop-opacity="0.5"/>
<stop offset="0.82" stop-color="white" stop-opacity="0.86"/>
<stop offset="0.86" stop-color="white"/>
<stop offset="0.87" stop-color="white" stop-opacity="0.97"/>
<stop offset="0.89" stop-color="white" stop-opacity="0.89"/>
<stop offset="0.91" stop-color="white" stop-opacity="0.76"/>
<stop offset="0.94" stop-color="white" stop-opacity="0.58"/>
<stop offset="0.96" stop-color="white" stop-opacity="0.35"/>
<stop offset="0.99" stop-color="white" stop-opacity="0.07"/>
<stop offset="1" stop-color="white" stop-opacity="0"/>
</radialGradient>
<radialGradient id="paint26_radial_124_3" cx="0" cy="0" r="1" gradientUnits="userSpaceOnUse" gradientTransform="translate(136.089 189.694) rotate(-40.47) scale(0.412604 0.606528)">
<stop stop-color="#F7EB85"/>
<stop offset="1" stop-color="#F7EB85" stop-opacity="0"/>
</radialGradient>
<radialGradient id="paint27_radial_124_3" cx="0" cy="0" r="1" gradientUnits="userSpaceOnUse" gradientTransform="translate(135.147 191.097) rotate(-52.8806) scale(0.193022 0.283741)">
<stop stop-color="#F7EB85"/>
<stop offset="1" stop-color="#F7EB85" stop-opacity="0"/>
</radialGradient>
<radialGradient id="paint28_radial_124_3" cx="0" cy="0" r="1" gradientUnits="userSpaceOnUse" gradientTransform="translate(145.161 181.17) rotate(-42.0418) scale(0.162918 0.156402)">
<stop stop-color="#F7EB85"/>
<stop offset="1" stop-color="#F7EB85" stop-opacity="0"/>
</radialGradient>
<radialGradient id="paint29_radial_124_3" cx="0" cy="0" r="1" gradientUnits="userSpaceOnUse" gradientTransform="translate(77.2805 172.053) rotate(16.69) scale(1.67875 1.59481)">
<stop stop-color="#E4C54C"/>
<stop offset="0.21" stop-color="#DBB543"/>
<stop offset="0.62" stop-color="#C48C2D"/>
<stop offset="1" stop-color="#AD6217"/>
</radialGradient>
<radialGradient id="paint30_radial_124_3" cx="0" cy="0" r="1" gradientUnits="userSpaceOnUse" gradientTransform="translate(77.6512 170.607) rotate(16.69) scale(1.52646 1.80122)">
<stop offset="0.57" stop-color="white" stop-opacity="0"/>
<stop offset="0.6" stop-color="white" stop-opacity="0.06"/>
<stop offset="0.65" stop-color="white" stop-opacity="0.23"/>
<stop offset="0.73" stop-color="white" stop-opacity="0.5"/>
<stop offset="0.82" stop-color="white" stop-opacity="0.86"/>
<stop offset="0.86" stop-color="white"/>
<stop offset="0.87" stop-color="white" stop-opacity="0.97"/>
<stop offset="0.89" stop-color="white" stop-opacity="0.89"/>
<stop offset="0.91" stop-color="white" stop-opacity="0.76"/>
<stop offset="0.94" stop-color="white" stop-opacity="0.58"/>
<stop offset="0.96" stop-color="white" stop-opacity="0.35"/>
<stop offset="0.99" stop-color="white" stop-opacity="0.07"/>
<stop offset="1" stop-color="white" stop-opacity="0"/>
</radialGradient>
<radialGradient id="paint31_radial_124_3" cx="0" cy="0" r="1" gradientUnits="userSpaceOnUse" gradientTransform="translate(77.4359 171.296) rotate(-40.47) scale(0.412604 0.606528)">
<stop stop-color="#F7EB85"/>
<stop offset="1" stop-color="#F7EB85" stop-opacity="0"/>
</radialGradient>
<radialGradient id="paint32_radial_124_3" cx="0" cy="0" r="1" gradientUnits="userSpaceOnUse" gradientTransform="translate(76.5158 172.689) rotate(-52.8803) scale(0.193023 0.283743)">
<stop stop-color="#F7EB85"/>
<stop offset="1" stop-color="#F7EB85" stop-opacity="0"/>
</radialGradient>
<radialGradient id="paint33_radial_124_3" cx="0" cy="0" r="1" gradientUnits="userSpaceOnUse" gradientTransform="translate(82.3573 166.575) rotate(-42.0414) scale(0.162919 0.156403)">
<stop stop-color="#F7EB85"/>
<stop offset="1" stop-color="#F7EB85" stop-opacity="0"/>
</radialGradient>
<radialGradient id="paint34_radial_124_3" cx="0" cy="0" r="1" gradientUnits="userSpaceOnUse" gradientTransform="translate(249.62 77.7367) rotate(16.69) scale(1.67875 1.59481)">
<stop stop-color="#E4C54C"/>
<stop offset="0.21" stop-color="#DBB543"/>
<stop offset="0.62" stop-color="#C48C2D"/>
<stop offset="1" stop-color="#AD6217"/>
</radialGradient>
<radialGradient id="paint35_radial_124_3" cx="0" cy="0" r="1" gradientUnits="userSpaceOnUse" gradientTransform="translate(249.856 76.7359) rotate(16.69) scale(1.52646 1.80122)">
<stop offset="0.57" stop-color="white" stop-opacity="0"/>
<stop offset="0.6" stop-color="white" stop-opacity="0.06"/>
<stop offset="0.65" stop-color="white" stop-opacity="0.23"/>
<stop offset="0.73" stop-color="white" stop-opacity="0.5"/>
<stop offset="0.82" stop-color="white" stop-opacity="0.86"/>
<stop offset="0.86" stop-color="white"/>
<stop offset="0.87" stop-color="white" stop-opacity="0.97"/>
<stop offset="0.89" stop-color="white" stop-opacity="0.89"/>
<stop offset="0.91" stop-color="white" stop-opacity="0.76"/>
<stop offset="0.94" stop-color="white" stop-opacity="0.58"/>
<stop offset="0.96" stop-color="white" stop-opacity="0.35"/>
<stop offset="0.99" stop-color="white" stop-opacity="0.07"/>
<stop offset="1" stop-color="white" stop-opacity="0"/>
</radialGradient>
<radialGradient id="paint36_radial_124_3" cx="0" cy="0" r="1" gradientUnits="userSpaceOnUse" gradientTransform="translate(249.676 77.0133) rotate(-40.4702) scale(0.412602 0.606526)">
<stop stop-color="#F7EB85"/>
<stop offset="1" stop-color="#F7EB85" stop-opacity="0"/>
</radialGradient>
<radialGradient id="paint37_radial_124_3" cx="0" cy="0" r="1" gradientUnits="userSpaceOnUse" gradientTransform="translate(248.679 78.3699) rotate(-52.8799) scale(0.193019 0.283739)">
<stop stop-color="#F7EB85"/>
<stop offset="1" stop-color="#F7EB85" stop-opacity="0"/>
</radialGradient>
<radialGradient id="paint38_radial_124_3" cx="0" cy="0" r="1" gradientUnits="userSpaceOnUse" gradientTransform="translate(259.008 68.2588) rotate(-42.0382) scale(0.162919 0.156401)">
<stop stop-color="#F7EB85"/>
<stop offset="1" stop-color="#F7EB85" stop-opacity="0"/>
</radialGradient>
<radialGradient id="paint39_radial_124_3" cx="0" cy="0" r="1" gradientUnits="userSpaceOnUse" gradientTransform="translate(93.9383 124.626) rotate(16.6899) scale(1.67875 1.59481)">
<stop stop-color="#E4C54C"/>
<stop offset="0.21" stop-color="#DBB543"/>
<stop offset="0.62" stop-color="#C48C2D"/>
<stop offset="1" stop-color="#AD6217"/>
</radialGradient>
<radialGradient id="paint40_radial_124_3" cx="0" cy="0" r="1" gradientUnits="userSpaceOnUse" gradientTransform="translate(94.2413 123.405) rotate(16.6899) scale(1.52646 1.80122)">
<stop offset="0.57" stop-color="white" stop-opacity="0"/>
<stop offset="0.6" stop-color="white" stop-opacity="0.06"/>
<stop offset="0.65" stop-color="white" stop-opacity="0.23"/>
<stop offset="0.73" stop-color="white" stop-opacity="0.5"/>
<stop offset="0.82" stop-color="white" stop-opacity="0.86"/>
<stop offset="0.86" stop-color="white"/>
<stop offset="0.87" stop-color="white" stop-opacity="0.97"/>
<stop offset="0.89" stop-color="white" stop-opacity="0.89"/>
<stop offset="0.91" stop-color="white" stop-opacity="0.76"/>
<stop offset="0.94" stop-color="white" stop-opacity="0.58"/>
<stop offset="0.96" stop-color="white" stop-opacity="0.35"/>
<stop offset="0.99" stop-color="white" stop-opacity="0.07"/>
<stop offset="1" stop-color="white" stop-opacity="0"/>
</radialGradient>
<radialGradient id="paint41_radial_124_3" cx="0" cy="0" r="1" gradientUnits="userSpaceOnUse" gradientTransform="translate(94.1127 123.959) rotate(-40.4698) scale(0.412603 0.606525)">
<stop stop-color="#F7EB85"/>
<stop offset="1" stop-color="#F7EB85" stop-opacity="0"/>
</radialGradient>
<radialGradient id="paint42_radial_124_3" cx="0" cy="0" r="1" gradientUnits="userSpaceOnUse" gradientTransform="translate(93.1808 125.329) rotate(-52.8798) scale(0.193019 0.283739)">
<stop stop-color="#F7EB85"/>
<stop offset="1" stop-color="#F7EB85" stop-opacity="0"/>
</radialGradient>
<radialGradient id="paint43_radial_124_3" cx="0" cy="0" r="1" gradientUnits="userSpaceOnUse" gradientTransform="translate(97.4575 120.683) rotate(-42.0409) scale(0.162921 0.156404)">
<stop stop-color="#F7EB85"/>
<stop offset="1" stop-color="#F7EB85" stop-opacity="0"/>
</radialGradient>
<radialGradient id="paint44_radial_124_3" cx="0" cy="0" r="1" gradientUnits="userSpaceOnUse" gradientTransform="translate(331.734 126.966) rotate(16.69) scale(1.67875 1.59481)">
<stop stop-color="#E4C54C"/>
<stop offset="0.21" stop-color="#DBB543"/>
<stop offset="0.62" stop-color="#C48C2D"/>
<stop offset="1" stop-color="#AD6217"/>
</radialGradient>
<radialGradient id="paint45_radial_124_3" cx="0" cy="0" r="1" gradientUnits="userSpaceOnUse" gradientTransform="translate(332.041 125.734) rotate(16.69) scale(1.52646 1.80122)">
<stop offset="0.57" stop-color="white" stop-opacity="0"/>
<stop offset="0.6" stop-color="white" stop-opacity="0.06"/>
<stop offset="0.65" stop-color="white" stop-opacity="0.23"/>
<stop offset="0.73" stop-color="white" stop-opacity="0.5"/>
<stop offset="0.82" stop-color="white" stop-opacity="0.86"/>
<stop offset="0.86" stop-color="white"/>
<stop offset="0.87" stop-color="white" stop-opacity="0.97"/>
<stop offset="0.89" stop-color="white" stop-opacity="0.89"/>
<stop offset="0.91" stop-color="white" stop-opacity="0.76"/>
<stop offset="0.94" stop-color="white" stop-opacity="0.58"/>
<stop offset="0.96" stop-color="white" stop-opacity="0.35"/>
<stop offset="0.99" stop-color="white" stop-opacity="0.07"/>
<stop offset="1" stop-color="white" stop-opacity="0"/>
</radialGradient>
<radialGradient id="paint46_radial_124_3" cx="0" cy="0" r="1" gradientUnits="userSpaceOnUse" gradientTransform="translate(331.669 126.05) rotate(-40.47) scale(0.412604 0.606528)">
<stop stop-color="#F7EB85"/>
<stop offset="1" stop-color="#F7EB85" stop-opacity="0"/>
</radialGradient>
<radialGradient id="paint47_radial_124_3" cx="0" cy="0" r="1" gradientUnits="userSpaceOnUse" gradientTransform="translate(330.644 127.437) rotate(-52.8804) scale(0.193022 0.283742)">
<stop stop-color="#F7EB85"/>
<stop offset="1" stop-color="#F7EB85" stop-opacity="0"/>
</radialGradient>
<radialGradient id="paint48_radial_124_3" cx="0" cy="0" r="1" gradientUnits="userSpaceOnUse" gradientTransform="translate(348.026 110.86) rotate(-42.04) scale(0.162913 0.156396)">
<stop stop-color="#F7EB85"/>
<stop offset="1" stop-color="#F7EB85" stop-opacity="0"/>
</radialGradient>
<radialGradient id="paint49_radial_124_3" cx="0" cy="0" r="1" gradientUnits="userSpaceOnUse" gradientTransform="translate(0.647336 42.1415) rotate(16.69) scale(1.67875 1.59482)">
<stop stop-color="#E4C54C"/>
<stop offset="0.21" stop-color="#DBB543"/>
<stop offset="0.62" stop-color="#C48C2D"/>
<stop offset="1" stop-color="#AD6217"/>
</radialGradient>
<radialGradient id="paint50_radial_124_3" cx="0" cy="0" r="1" gradientUnits="userSpaceOnUse" gradientTransform="translate(0.831527 41.31) rotate(16.69) scale(1.52646 1.80122)">
<stop offset="0.57" stop-color="white" stop-opacity="0"/>
<stop offset="0.6" stop-color="white" stop-opacity="0.06"/>
<stop offset="0.65" stop-color="white" stop-opacity="0.23"/>
<stop offset="0.73" stop-color="white" stop-opacity="0.5"/>
<stop offset="0.82" stop-color="white" stop-opacity="0.86"/>
<stop offset="0.86" stop-color="white"/>
<stop offset="0.87" stop-color="white" stop-opacity="0.97"/>
<stop offset="0.89" stop-color="white" stop-opacity="0.89"/>
<stop offset="0.91" stop-color="white" stop-opacity="0.76"/>
<stop offset="0.94" stop-color="white" stop-opacity="0.58"/>
<stop offset="0.96" stop-color="white" stop-opacity="0.35"/>
<stop offset="0.99" stop-color="white" stop-opacity="0.07"/>
<stop offset="1" stop-color="white" stop-opacity="0"/>
</radialGradient>
<radialGradient id="paint51_radial_124_3" cx="0" cy="0" r="1" gradientUnits="userSpaceOnUse" gradientTransform="translate(0.98013 41.7546) rotate(-40.47) scale(0.412604 0.606528)">
<stop stop-color="#F7EB85"/>
<stop offset="1" stop-color="#F7EB85" stop-opacity="0"/>
</radialGradient>
<radialGradient id="paint52_radial_124_3" cx="0" cy="0" r="1" gradientUnits="userSpaceOnUse" gradientTransform="translate(0.080176 43.0766) rotate(-52.8801) scale(0.193021 0.283741)">
<stop stop-color="#F7EB85"/>
<stop offset="1" stop-color="#F7EB85" stop-opacity="0"/>
</radialGradient>
<radialGradient id="paint53_radial_124_3" cx="0" cy="0" r="1" gradientUnits="userSpaceOnUse" gradientTransform="translate(74.7509 9.2962) rotate(16.69) scale(0.619793 0.588803)">
<stop stop-color="#E4C54C"/>
<stop offset="0.21" stop-color="#DBB543"/>
<stop offset="0.62" stop-color="#C48C2D"/>
<stop offset="1" stop-color="#AD6217"/>
</radialGradient>
<radialGradient id="paint54_radial_124_3" cx="0" cy="0" r="1" gradientUnits="userSpaceOnUse" gradientTransform="translate(74.9188 8.6626) rotate(16.69) scale(0.563126 0.664489)">
<stop offset="0.57" stop-color="white" stop-opacity="0"/>
<stop offset="0.6" stop-color="white" stop-opacity="0.06"/>
<stop offset="0.65" stop-color="white" stop-opacity="0.23"/>
<stop offset="0.73" stop-color="white" stop-opacity="0.5"/>
<stop offset="0.82" stop-color="white" stop-opacity="0.86"/>
<stop offset="0.86" stop-color="white"/>
<stop offset="0.87" stop-color="white" stop-opacity="0.97"/>
<stop offset="0.89" stop-color="white" stop-opacity="0.89"/>
<stop offset="0.91" stop-color="white" stop-opacity="0.76"/>
<stop offset="0.94" stop-color="white" stop-opacity="0.58"/>
<stop offset="0.96" stop-color="white" stop-opacity="0.35"/>
<stop offset="0.99" stop-color="white" stop-opacity="0.07"/>
<stop offset="1" stop-color="white" stop-opacity="0"/>
</radialGradient>
<radialGradient id="paint55_radial_124_3" cx="0" cy="0" r="1" gradientUnits="userSpaceOnUse" gradientTransform="translate(74.8598 9.04579) rotate(-40.4697) scale(0.152291 0.223867)">
<stop stop-color="#F7EB85"/>
<stop offset="1" stop-color="#F7EB85" stop-opacity="0"/>
</radialGradient>
<radialGradient id="paint56_radial_124_3" cx="0" cy="0" r="1" gradientUnits="userSpaceOnUse" gradientTransform="translate(74.5194 9.53402) rotate(-52.8798) scale(0.0708329 0.104125)">
<stop stop-color="#F7EB85"/>
<stop offset="1" stop-color="#F7EB85" stop-opacity="0"/>
</radialGradient>
<radialGradient id="paint57_radial_124_3" cx="0" cy="0" r="1" gradientUnits="userSpaceOnUse" gradientTransform="translate(72.0083 11.6867) rotate(-42.0388) scale(0.0602089 0.0578003)">
<stop stop-color="#F7EB85"/>
<stop offset="1" stop-color="#F7EB85" stop-opacity="0"/>
</radialGradient>
</defs>
</svg>
