<svg width="1920" height="1080" viewBox="0 0 1920 1080" fill="none" xmlns="http://www.w3.org/2000/svg">
<mask id="mask0_5_1580" style="mask-type:luminance" maskUnits="userSpaceOnUse" x="0" y="0" width="1920" height="1080">
<path d="M1920 0H0V1080H1920V0Z" fill="white"/>
</mask>
<g mask="url(#mask0_5_1580)">
<g filter="url(#filter0_d_5_1580)">
<path d="M1229.48 1244.31C1313.61 1104.14 1409.22 947.65 1495.58 808.84C1411.46 949.02 1315.83 1105.5 1229.48 1244.31Z" fill="#FFC801"/>
<path d="M1147.51 1326.92C1230.56 1185.86 1317.7 1043.38 1405.03 904.9L1413.6 891.45L1405.54 905.22C1322.16 1046.11 1235.14 1188.66 1147.5 1326.92H1147.51Z" fill="#FFC801"/>
<path d="M1301.26 1175.46C1385.39 1035.29 1481 878.8 1567.36 739.99C1483.24 880.17 1387.61 1036.65 1301.26 1175.46Z" fill="#FFC801"/>
</g>
<g filter="url(#filter1_d_5_1580)">
<path d="M522.85 346.12C606.98 205.95 702.59 49.46 788.95 -89.35C704.83 50.83 609.2 207.31 522.85 346.12Z" fill="#FFC801"/>
<path d="M539.51 207.38C623.64 67.21 719.25 -89.28 805.61 -228.09C721.49 -87.91 625.86 68.57 539.51 207.38Z" fill="#FFC801"/>
<path d="M859.92 -248.74C797.75 -144.51 726.77 -28.32 662.37 74.55C724.53 -29.69 795.53 -145.86 859.92 -248.74Z" fill="#FFC801"/>
<path d="M656.43 45.1301C609.01 127.92 558.43 210.56 506.71 290.73L501.61 298.49L506.19 290.41C553.93 207.81 604.4 125.09 656.43 45.1201V45.1301Z" fill="#FFC801"/>
</g>
<g filter="url(#filter2_d_5_1580)">
<path d="M855.67 817.43C857.123 817.43 858.3 816.252 858.3 814.8C858.3 813.347 857.123 812.17 855.67 812.17C854.218 812.17 853.04 813.347 853.04 814.8C853.04 816.252 854.218 817.43 855.67 817.43Z" fill="url(#paint0_radial_5_1580)"/>
</g>
<path style="mix-blend-mode:overlay" opacity="0.5" d="M855.67 817.43C857.123 817.43 858.3 816.252 858.3 814.8C858.3 813.347 857.123 812.17 855.67 812.17C854.218 812.17 853.04 813.347 853.04 814.8C853.04 816.252 854.218 817.43 855.67 817.43Z" fill="url(#paint1_radial_5_1580)"/>
<path d="M857.22 813.13C857.74 813.65 857.89 814.36 857.55 814.7C857.21 815.04 856.51 814.89 855.98 814.37C855.46 813.85 855.31 813.14 855.65 812.8C855.99 812.46 856.69 812.61 857.22 813.13Z" fill="url(#paint2_radial_5_1580)"/>
<path opacity="0.5" d="M854.85 816.11C855.14 816.3 855.28 816.6 855.16 816.79C855.04 816.98 854.7 816.98 854.41 816.79C854.12 816.6 853.98 816.3 854.1 816.11C854.22 815.92 854.56 815.92 854.85 816.11Z" fill="url(#paint3_radial_5_1580)"/>
<path opacity="0.5" d="M853.99 815.3C854.13 815.44 854.13 815.66 853.99 815.79C853.85 815.93 853.63 815.93 853.5 815.79C853.36 815.65 853.36 815.43 853.5 815.3C853.64 815.16 853.86 815.16 853.99 815.3Z" fill="url(#paint4_radial_5_1580)"/>
<g filter="url(#filter3_d_5_1580)">
<path d="M727.245 195.107C729.421 191.838 728.535 187.424 725.266 185.248C721.998 183.072 717.584 183.958 715.408 187.227C713.232 190.496 714.118 194.91 717.387 197.085C720.656 199.261 725.069 198.375 727.245 195.107Z" fill="#FFC801"/>
</g>
<g style="mix-blend-mode:overlay" opacity="0.5">
<path d="M727.245 195.107C729.421 191.838 728.535 187.424 725.266 185.248C721.998 183.072 717.584 183.958 715.408 187.227C713.232 190.496 714.118 194.91 717.387 197.085C720.656 199.261 725.069 198.375 727.245 195.107Z" fill="#FFC801"/>
</g>
<path d="M725.54 186.64C726.96 188.06 727.36 189.96 726.43 190.88C725.5 191.81 723.61 191.41 722.19 189.99C720.77 188.57 720.37 186.67 721.3 185.75C722.22 184.82 724.12 185.22 725.54 186.64Z" fill="#FFC801"/>
<path opacity="0.5" d="M719.11 194.73C719.9 195.24 720.27 196.06 719.94 196.58C719.61 197.1 718.7 197.1 717.91 196.6C717.12 196.09 716.75 195.27 717.08 194.75C717.41 194.23 718.32 194.23 719.11 194.73Z" fill="#FFC801"/>
<path opacity="0.5" d="M716.78 192.53C717.15 192.9 717.15 193.49 716.78 193.86C716.41 194.23 715.82 194.23 715.45 193.86C715.08 193.49 715.08 192.9 715.45 192.53C715.82 192.16 716.41 192.16 716.78 192.53Z" fill="#FFC801"/>
<g filter="url(#filter4_d_5_1580)">
<path d="M315.74 424.11C319.667 424.11 322.85 420.927 322.85 417C322.85 413.073 319.667 409.89 315.74 409.89C311.813 409.89 308.63 413.073 308.63 417C308.63 420.927 311.813 424.11 315.74 424.11Z" fill="#FFC801"/>
</g>
<g style="mix-blend-mode:overlay" opacity="0.5">
<path d="M315.74 424.11C319.667 424.11 322.85 420.927 322.85 417C322.85 413.073 319.667 409.89 315.74 409.89C311.813 409.89 308.63 413.073 308.63 417C308.63 420.927 311.813 424.11 315.74 424.11Z" fill="#FFC801"/>
</g>
<path d="M319.94 412.48C321.36 413.9 321.76 415.8 320.83 416.72C319.9 417.64 318.01 417.25 316.59 415.83C315.17 414.41 314.77 412.51 315.7 411.59C316.63 410.66 318.52 411.06 319.94 412.48Z" fill="#FFC801"/>
<path opacity="0.5" d="M313.52 420.56C314.31 421.07 314.68 421.89 314.35 422.41C314.02 422.93 313.11 422.93 312.32 422.43C311.53 421.92 311.16 421.1 311.49 420.58C311.82 420.06 312.73 420.06 313.52 420.56Z" fill="#FFC801"/>
<path opacity="0.5" d="M311.19 418.36C311.56 418.73 311.56 419.32 311.19 419.69C310.82 420.06 310.23 420.06 309.86 419.69C309.49 419.32 309.49 418.73 309.86 418.36C310.23 417.99 310.82 417.99 311.19 418.36Z" fill="#FFC801"/>
<g filter="url(#filter5_d_5_1580)">
<path d="M774.74 1075.69C774.74 1079.61 771.56 1082.8 767.63 1082.8C763.7 1082.8 760.52 1079.62 760.52 1075.69C760.52 1071.76 763.7 1068.58 767.63 1068.58C771.56 1068.58 774.74 1071.76 774.74 1075.69Z" fill="#FFC801"/>
</g>
<g style="mix-blend-mode:overlay" opacity="0.5">
<path d="M774.74 1075.69C774.74 1079.61 771.56 1082.8 767.63 1082.8C763.7 1082.8 760.52 1079.62 760.52 1075.69C760.52 1071.76 763.7 1068.58 767.63 1068.58C771.56 1068.58 774.74 1071.76 774.74 1075.69Z" fill="#FFC801"/>
</g>
<path d="M771.83 1071.18C773.25 1072.6 773.65 1074.5 772.72 1075.42C771.79 1076.34 769.9 1075.95 768.48 1074.53C767.06 1073.11 766.66 1071.21 767.59 1070.29C768.51 1069.36 770.41 1069.76 771.83 1071.18Z" fill="#FFC801"/>
<path opacity="0.5" d="M765.4 1079.26C766.19 1079.77 766.56 1080.59 766.23 1081.11C765.9 1081.63 764.99 1081.63 764.2 1081.13C763.41 1080.62 763.04 1079.8 763.37 1079.28C763.7 1078.76 764.61 1078.76 765.4 1079.26Z" fill="#FFC801"/>
<path opacity="0.5" d="M763.08 1077.06C763.45 1077.43 763.45 1078.02 763.08 1078.39C762.71 1078.76 762.12 1078.76 761.75 1078.39C761.38 1078.02 761.38 1077.43 761.75 1077.06C762.12 1076.69 762.71 1076.69 763.08 1077.06Z" fill="#FFC801"/>
<g filter="url(#filter6_d_5_1580)">
<path d="M435.98 978.44C439.907 978.44 443.09 975.257 443.09 971.33C443.09 967.403 439.907 964.22 435.98 964.22C432.053 964.22 428.87 967.403 428.87 971.33C428.87 975.257 432.053 978.44 435.98 978.44Z" fill="#FFC801"/>
</g>
<g style="mix-blend-mode:overlay" opacity="0.5">
<path d="M435.98 978.44C439.907 978.44 443.09 975.257 443.09 971.33C443.09 967.403 439.907 964.22 435.98 964.22C432.053 964.22 428.87 967.403 428.87 971.33C428.87 975.257 432.053 978.44 435.98 978.44Z" fill="#FFC801"/>
</g>
<path d="M440.18 966.81C441.6 968.23 442 970.13 441.07 971.05C440.15 971.98 438.25 971.58 436.83 970.16C435.41 968.74 435.01 966.84 435.94 965.92C436.87 964.99 438.76 965.39 440.18 966.81Z" fill="#FFC801"/>
<path opacity="0.5" d="M433.75 974.89C434.54 975.4 434.91 976.22 434.58 976.74C434.25 977.26 433.34 977.26 432.55 976.76C431.76 976.25 431.39 975.43 431.72 974.91C432.05 974.39 432.96 974.39 433.75 974.89Z" fill="#FFC801"/>
<path opacity="0.5" d="M431.42 972.69C431.79 973.06 431.79 973.65 431.42 974.02C431.05 974.39 430.46 974.39 430.09 974.02C429.72 973.65 429.72 973.06 430.09 972.69C430.46 972.32 431.05 972.32 431.42 972.69Z" fill="#FFC801"/>
<g filter="url(#filter7_d_5_1580)">
<path d="M1409.02 446.47C1412.95 446.47 1416.13 443.287 1416.13 439.36C1416.13 435.433 1412.95 432.25 1409.02 432.25C1405.09 432.25 1401.91 435.433 1401.91 439.36C1401.91 443.287 1405.09 446.47 1409.02 446.47Z" fill="#FFC801"/>
</g>
<g style="mix-blend-mode:overlay" opacity="0.5">
<path d="M1409.02 446.47C1412.95 446.47 1416.13 443.287 1416.13 439.36C1416.13 435.433 1412.95 432.25 1409.02 432.25C1405.09 432.25 1401.91 435.433 1401.91 439.36C1401.91 443.287 1405.09 446.47 1409.02 446.47Z" fill="#FFC801"/>
</g>
<path d="M1413.22 434.85C1414.64 436.27 1415.04 438.17 1414.11 439.09C1413.18 440.02 1411.29 439.62 1409.87 438.2C1408.45 436.78 1408.05 434.88 1408.98 433.96C1409.91 433.03 1411.8 433.43 1413.22 434.85Z" fill="#FFC801"/>
<path opacity="0.5" d="M1406.8 442.93C1407.59 443.44 1407.96 444.26 1407.63 444.78C1407.3 445.3 1406.39 445.3 1405.6 444.8C1404.81 444.29 1404.44 443.47 1404.77 442.95C1405.1 442.43 1406.01 442.43 1406.8 442.93Z" fill="#FFC801"/>
<path opacity="0.5" d="M1404.47 440.73C1404.84 441.1 1404.84 441.69 1404.47 442.06C1404.1 442.43 1403.51 442.43 1403.14 442.06C1402.77 441.69 1402.77 441.1 1403.14 440.73C1403.51 440.36 1404.1 440.36 1404.47 440.73Z" fill="#FFC801"/>
<g filter="url(#filter8_d_5_1580)">
<path d="M529.96 710.92C533.887 710.92 537.07 707.737 537.07 703.81C537.07 699.883 533.887 696.7 529.96 696.7C526.033 696.7 522.85 699.883 522.85 703.81C522.85 707.737 526.033 710.92 529.96 710.92Z" fill="#FFC801"/>
</g>
<g style="mix-blend-mode:overlay" opacity="0.5">
<path d="M529.96 710.92C533.887 710.92 537.07 707.737 537.07 703.81C537.07 699.883 533.887 696.7 529.96 696.7C526.033 696.7 522.85 699.883 522.85 703.81C522.85 707.737 526.033 710.92 529.96 710.92Z" fill="#FFC801"/>
</g>
<path d="M534.16 699.29C535.58 700.71 535.98 702.61 535.05 703.53C534.13 704.46 532.23 704.06 530.81 702.64C529.39 701.22 528.99 699.32 529.92 698.4C530.85 697.47 532.74 697.87 534.16 699.29Z" fill="#FFC801"/>
<path opacity="0.5" d="M527.73 707.38C528.52 707.89 528.89 708.71 528.56 709.23C528.23 709.75 527.32 709.75 526.53 709.25C525.74 708.74 525.37 707.92 525.7 707.4C526.03 706.88 526.94 706.88 527.73 707.38Z" fill="#FFC801"/>
<path opacity="0.5" d="M525.41 705.18C525.78 705.55 525.78 706.14 525.41 706.51C525.04 706.88 524.45 706.88 524.08 706.51C523.71 706.14 523.71 705.55 524.08 705.18C524.45 704.81 525.04 704.81 525.41 705.18Z" fill="#FFC801"/>
<g filter="url(#filter9_d_5_1580)">
<path d="M1879.9 717.09C1879.9 721.01 1876.72 724.2 1872.79 724.2C1868.86 724.2 1865.68 721.02 1865.68 717.09C1865.68 713.16 1868.86 709.98 1872.79 709.98C1876.72 709.98 1879.9 713.16 1879.9 717.09Z" fill="#FFC801"/>
</g>
<g style="mix-blend-mode:overlay" opacity="0.5">
<path d="M1879.9 717.09C1879.9 721.01 1876.72 724.2 1872.79 724.2C1868.86 724.2 1865.68 721.02 1865.68 717.09C1865.68 713.16 1868.86 709.98 1872.79 709.98C1876.72 709.98 1879.9 713.16 1879.9 717.09Z" fill="#FFC801"/>
</g>
<path d="M1877 712.58C1878.42 714 1878.82 715.9 1877.89 716.82C1876.96 717.75 1875.07 717.35 1873.65 715.93C1872.23 714.51 1871.83 712.61 1872.76 711.69C1873.69 710.76 1875.58 711.16 1877 712.58Z" fill="#FFC801"/>
<path opacity="0.5" d="M1870.57 720.66C1871.36 721.17 1871.73 721.99 1871.4 722.51C1871.07 723.03 1870.16 723.03 1869.37 722.53C1868.58 722.02 1868.21 721.2 1868.54 720.68C1868.87 720.16 1869.78 720.16 1870.57 720.66Z" fill="#FFC801"/>
<path opacity="0.5" d="M1868.24 718.46C1868.61 718.83 1868.61 719.42 1868.24 719.79C1867.87 720.16 1867.28 720.16 1866.91 719.79C1866.54 719.42 1866.54 718.83 1866.91 718.46C1867.28 718.09 1867.87 718.09 1868.24 718.46Z" fill="#FFC801"/>
<g filter="url(#filter10_d_5_1580)">
<path d="M3.02992 245.61C6.95667 245.61 10.1399 242.427 10.1399 238.5C10.1399 234.573 6.95667 231.39 3.02992 231.39C-0.896822 231.39 -4.08008 234.573 -4.08008 238.5C-4.08008 242.427 -0.896822 245.61 3.02992 245.61Z" fill="#FFC801"/>
</g>
<g style="mix-blend-mode:overlay" opacity="0.5">
<path d="M3.02992 245.61C6.95667 245.61 10.1399 242.427 10.1399 238.5C10.1399 234.573 6.95667 231.39 3.02992 231.39C-0.896822 231.39 -4.08008 234.573 -4.08008 238.5C-4.08008 242.427 -0.896822 245.61 3.02992 245.61Z" fill="#FFC801"/>
</g>
<path d="M7.2399 233.98C8.6599 235.4 9.0599 237.3 8.1299 238.22C7.1999 239.15 5.3099 238.75 3.8899 237.33C2.4699 235.91 2.0699 234.01 2.9999 233.09C3.9299 232.17 5.8199 232.56 7.2399 233.98Z" fill="#FFC801"/>
<path opacity="0.5" d="M0.809813 242.07C1.59981 242.58 1.96981 243.4 1.63981 243.92C1.30981 244.44 0.399812 244.44 -0.390188 243.94C-1.18019 243.43 -1.55019 242.61 -1.22019 242.09C-0.890188 241.57 0.0198128 241.57 0.809813 242.07Z" fill="#FFC801"/>
<g filter="url(#filter11_d_5_1580)">
<path d="M421.99 54.8701C423.442 54.8701 424.62 53.6926 424.62 52.2401C424.62 50.7876 423.442 49.6101 421.99 49.6101C420.537 49.6101 419.36 50.7876 419.36 52.2401C419.36 53.6926 420.537 54.8701 421.99 54.8701Z" fill="#FFC801"/>
</g>
<g style="mix-blend-mode:overlay" opacity="0.5">
<path d="M421.99 54.8701C423.442 54.8701 424.62 53.6926 424.62 52.2401C424.62 50.7876 423.442 49.6101 421.99 49.6101C420.537 49.6101 419.36 50.7876 419.36 52.2401C419.36 53.6926 420.537 54.8701 421.99 54.8701Z" fill="#FFC801"/>
</g>
<path d="M423.55 50.5701C424.07 51.0901 424.22 51.8001 423.88 52.1401C423.54 52.4801 422.84 52.3301 422.31 51.8101C421.79 51.2901 421.64 50.5802 421.98 50.2402C422.32 49.9002 423.02 50.0501 423.55 50.5701Z" fill="#FFC801"/>
<path opacity="0.5" d="M421.17 53.5501C421.46 53.7401 421.6 54.0401 421.48 54.2301C421.36 54.4201 421.02 54.4201 420.73 54.2301C420.44 54.0401 420.3 53.7401 420.42 53.5501C420.54 53.3601 420.88 53.3601 421.17 53.5501Z" fill="#FFC801"/>
<path opacity="0.5" d="M420.31 52.7401C420.45 52.8801 420.45 53.1001 420.31 53.2301C420.17 53.3701 419.95 53.3701 419.82 53.2301C419.68 53.0901 419.68 52.8701 419.82 52.7401C419.96 52.6001 420.18 52.6001 420.31 52.7401Z" fill="#FFC801"/>
</g>
<g filter="url(#filter12_d_5_1580)">
<path d="M1188.87 171.476C1192.14 169.3 1193.03 164.886 1190.85 161.618C1188.67 158.349 1184.26 157.463 1180.99 159.639C1177.72 161.815 1176.84 166.228 1179.01 169.497C1181.19 172.766 1185.6 173.652 1188.87 171.476Z" fill="#FFC801"/>
</g>
<g style="mix-blend-mode:overlay" opacity="0.5">
<path d="M1188.87 171.476C1192.14 169.3 1193.03 164.886 1190.85 161.618C1188.67 158.349 1184.26 157.463 1180.99 159.639C1177.72 161.815 1176.84 166.228 1179.01 169.497C1181.19 172.766 1185.6 173.652 1188.87 171.476Z" fill="#FFC801"/>
</g>
<path d="M1180.73 161.04C1179.31 162.46 1178.91 164.36 1179.84 165.28C1180.77 166.21 1182.66 165.81 1184.08 164.39C1185.5 162.97 1185.9 161.07 1184.97 160.15C1184.05 159.22 1182.15 159.62 1180.73 161.04Z" fill="#FFC801"/>
<path opacity="0.5" d="M1187.16 169.13C1186.37 169.64 1186 170.46 1186.33 170.98C1186.66 171.5 1187.57 171.5 1188.36 171C1189.15 170.49 1189.52 169.67 1189.19 169.15C1188.86 168.63 1187.95 168.63 1187.16 169.13Z" fill="#FFC801"/>
<path opacity="0.5" d="M1189.48 166.93C1189.11 167.3 1189.11 167.89 1189.48 168.26C1189.85 168.63 1190.44 168.63 1190.81 168.26C1191.18 167.89 1191.18 167.3 1190.81 166.93C1190.44 166.56 1189.85 166.56 1189.48 166.93Z" fill="#FFC801"/>
<g filter="url(#filter13_d_5_1580)">
<path d="M1590.52 398.51C1594.45 398.51 1597.63 395.327 1597.63 391.4C1597.63 387.473 1594.45 384.29 1590.52 384.29C1586.59 384.29 1583.41 387.473 1583.41 391.4C1583.41 395.327 1586.59 398.51 1590.52 398.51Z" fill="#FFC801"/>
</g>
<g style="mix-blend-mode:overlay" opacity="0.5">
<path d="M1590.52 398.51C1594.45 398.51 1597.63 395.327 1597.63 391.4C1597.63 387.473 1594.45 384.29 1590.52 384.29C1586.59 384.29 1583.41 387.473 1583.41 391.4C1583.41 395.327 1586.59 398.51 1590.52 398.51Z" fill="#FFC801"/>
</g>
<path d="M1586.32 386.88C1584.9 388.3 1584.5 390.2 1585.43 391.12C1586.36 392.04 1588.25 391.65 1589.67 390.23C1591.09 388.81 1591.49 386.91 1590.56 385.99C1589.64 385.06 1587.74 385.46 1586.32 386.88Z" fill="#FFC801"/>
<path opacity="0.5" d="M1592.75 394.96C1591.96 395.47 1591.59 396.29 1591.92 396.81C1592.25 397.33 1593.16 397.33 1593.95 396.83C1594.74 396.32 1595.11 395.5 1594.78 394.98C1594.45 394.46 1593.54 394.46 1592.75 394.96Z" fill="#FFC801"/>
<path opacity="0.5" d="M1595.07 392.76C1594.7 393.13 1594.7 393.72 1595.07 394.09C1595.44 394.46 1596.03 394.46 1596.4 394.09C1596.77 393.72 1596.77 393.13 1596.4 392.76C1596.03 392.39 1595.44 392.39 1595.07 392.76Z" fill="#FFC801"/>
<g filter="url(#filter14_d_5_1580)">
<path d="M1131.53 1050.09C1131.53 1054.01 1134.71 1057.2 1138.64 1057.2C1142.57 1057.2 1145.75 1054.02 1145.75 1050.09C1145.75 1046.16 1142.57 1042.98 1138.64 1042.98C1134.71 1042.98 1131.53 1046.16 1131.53 1050.09Z" fill="#FFC801"/>
</g>
<g style="mix-blend-mode:overlay" opacity="0.5">
<path d="M1131.53 1050.09C1131.53 1054.01 1134.71 1057.2 1138.64 1057.2C1142.57 1057.2 1145.75 1054.02 1145.75 1050.09C1145.75 1046.16 1142.57 1042.98 1138.64 1042.98C1134.71 1042.98 1131.53 1046.16 1131.53 1050.09Z" fill="#FFC801"/>
</g>
<path d="M1134.43 1045.58C1133.01 1047 1132.61 1048.9 1133.54 1049.82C1134.47 1050.75 1136.36 1050.35 1137.78 1048.93C1139.2 1047.51 1139.6 1045.61 1138.67 1044.69C1137.75 1043.76 1135.85 1044.16 1134.43 1045.58Z" fill="#FFC801"/>
<path opacity="0.5" d="M1140.86 1053.66C1140.07 1054.17 1139.7 1054.99 1140.03 1055.51C1140.36 1056.03 1141.27 1056.03 1142.06 1055.53C1142.85 1055.02 1143.22 1054.2 1142.89 1053.68C1142.56 1053.16 1141.65 1053.16 1140.86 1053.66Z" fill="#FFC801"/>
<path opacity="0.5" d="M1143.19 1051.46C1142.82 1051.83 1142.82 1052.42 1143.19 1052.79C1143.56 1053.16 1144.15 1053.16 1144.52 1052.79C1144.89 1052.42 1144.89 1051.83 1144.52 1051.46C1144.15 1051.09 1143.56 1051.09 1143.19 1051.46Z" fill="#FFC801"/>
<g filter="url(#filter15_d_5_1580)">
<path d="M1470.29 952.83C1474.22 952.83 1477.4 949.647 1477.4 945.72C1477.4 941.793 1474.22 938.61 1470.29 938.61C1466.36 938.61 1463.18 941.793 1463.18 945.72C1463.18 949.647 1466.36 952.83 1470.29 952.83Z" fill="#FFC801"/>
</g>
<g style="mix-blend-mode:overlay" opacity="0.5">
<path d="M1470.29 952.83C1474.22 952.83 1477.4 949.647 1477.4 945.72C1477.4 941.793 1474.22 938.61 1470.29 938.61C1466.36 938.61 1463.18 941.793 1463.18 945.72C1463.18 949.647 1466.36 952.83 1470.29 952.83Z" fill="#FFC801"/>
</g>
<path d="M1466.09 941.21C1464.67 942.63 1464.27 944.53 1465.2 945.45C1466.12 946.38 1468.02 945.98 1469.44 944.56C1470.86 943.14 1471.26 941.24 1470.33 940.32C1469.4 939.39 1467.51 939.79 1466.09 941.21Z" fill="#FFC801"/>
<path opacity="0.5" d="M1472.52 949.29C1471.73 949.8 1471.36 950.62 1471.69 951.14C1472.02 951.66 1472.93 951.66 1473.72 951.16C1474.51 950.65 1474.88 949.83 1474.55 949.31C1474.22 948.79 1473.31 948.79 1472.52 949.29Z" fill="#FFC801"/>
<path opacity="0.5" d="M1474.84 947.09C1474.47 947.46 1474.47 948.05 1474.84 948.42C1475.21 948.79 1475.8 948.79 1476.17 948.42C1476.54 948.05 1476.54 947.46 1476.17 947.09C1475.8 946.72 1475.21 946.72 1474.84 947.09Z" fill="#FFC801"/>
<g filter="url(#filter16_d_5_1580)">
<path d="M497.24 420.87C501.167 420.87 504.35 417.687 504.35 413.76C504.35 409.833 501.167 406.65 497.24 406.65C493.313 406.65 490.13 409.833 490.13 413.76C490.13 417.687 493.313 420.87 497.24 420.87Z" fill="#FFC801"/>
</g>
<g style="mix-blend-mode:overlay" opacity="0.5">
<path d="M497.24 420.87C501.167 420.87 504.35 417.687 504.35 413.76C504.35 409.833 501.167 406.65 497.24 406.65C493.313 406.65 490.13 409.833 490.13 413.76C490.13 417.687 493.313 420.87 497.24 420.87Z" fill="#FFC801"/>
</g>
<path d="M493.04 409.25C491.62 410.67 491.22 412.57 492.15 413.49C493.07 414.42 494.97 414.02 496.39 412.6C497.81 411.18 498.21 409.28 497.28 408.36C496.35 407.43 494.46 407.83 493.04 409.25Z" fill="#FFC801"/>
<path opacity="0.5" d="M499.47 417.33C498.68 417.84 498.31 418.66 498.64 419.18C498.97 419.7 499.88 419.7 500.67 419.2C501.46 418.69 501.83 417.87 501.5 417.35C501.17 416.83 500.26 416.83 499.47 417.33Z" fill="#FFC801"/>
<path opacity="0.5" d="M501.8 415.13C501.43 415.5 501.43 416.09 501.8 416.46C502.17 416.83 502.76 416.83 503.13 416.46C503.5 416.09 503.5 415.5 503.13 415.13C502.76 414.76 502.17 414.76 501.8 415.13Z" fill="#FFC801"/>
<g filter="url(#filter17_d_5_1580)">
<path d="M1376.3 685.32C1380.23 685.32 1383.41 682.137 1383.41 678.21C1383.41 674.283 1380.23 671.1 1376.3 671.1C1372.37 671.1 1369.19 674.283 1369.19 678.21C1369.19 682.137 1372.37 685.32 1376.3 685.32Z" fill="#FFC801"/>
</g>
<g style="mix-blend-mode:overlay" opacity="0.5">
<path d="M1376.3 685.32C1380.23 685.32 1383.41 682.137 1383.41 678.21C1383.41 674.283 1380.23 671.1 1376.3 671.1C1372.37 671.1 1369.19 674.283 1369.19 678.21C1369.19 682.137 1372.37 685.32 1376.3 685.32Z" fill="#FFC801"/>
</g>
<path d="M1372.1 673.69C1370.68 675.11 1370.28 677.01 1371.21 677.93C1372.13 678.86 1374.03 678.46 1375.45 677.04C1376.87 675.62 1377.27 673.72 1376.34 672.8C1375.41 671.87 1373.52 672.27 1372.1 673.69Z" fill="#FFC801"/>
<path opacity="0.5" d="M1378.53 681.78C1377.74 682.29 1377.37 683.11 1377.7 683.63C1378.03 684.15 1378.94 684.15 1379.73 683.65C1380.52 683.14 1380.89 682.32 1380.56 681.8C1380.23 681.28 1379.32 681.28 1378.53 681.78Z" fill="#FFC801"/>
<path opacity="0.5" d="M1380.86 679.58C1380.49 679.95 1380.49 680.54 1380.86 680.91C1381.23 681.28 1381.82 681.28 1382.19 680.91C1382.56 680.54 1382.56 679.95 1382.19 679.58C1381.82 679.21 1381.23 679.21 1380.86 679.58Z" fill="#FFC801"/>
<g filter="url(#filter18_d_5_1580)">
<path d="M26.3701 691.49C26.3701 695.41 29.5501 698.6 33.4801 698.6C37.4101 698.6 40.5901 695.42 40.5901 691.49C40.5901 687.56 37.4101 684.38 33.4801 684.38C29.5501 684.38 26.3701 687.56 26.3701 691.49Z" fill="#FFC801"/>
</g>
<g style="mix-blend-mode:overlay" opacity="0.5">
<path d="M26.3701 691.49C26.3701 695.41 29.5501 698.6 33.4801 698.6C37.4101 698.6 40.5901 695.42 40.5901 691.49C40.5901 687.56 37.4101 684.38 33.4801 684.38C29.5501 684.38 26.3701 687.56 26.3701 691.49Z" fill="#FFC801"/>
</g>
<path d="M29.27 686.98C27.85 688.4 27.45 690.3 28.38 691.22C29.3 692.15 31.2 691.75 32.62 690.33C34.04 688.91 34.44 687.01 33.51 686.09C32.58 685.16 30.69 685.56 29.27 686.98Z" fill="#FFC801"/>
<path opacity="0.5" d="M35.7001 695.06C34.9101 695.57 34.5401 696.39 34.8701 696.91C35.2001 697.43 36.1101 697.43 36.9001 696.93C37.6901 696.42 38.0601 695.6 37.7301 695.08C37.4001 694.56 36.4901 694.56 35.7001 695.06Z" fill="#FFC801"/>
<path opacity="0.5" d="M38.0202 692.86C37.6502 693.23 37.6502 693.82 38.0202 694.19C38.3902 694.56 38.9802 694.56 39.3502 694.19C39.7202 693.82 39.7202 693.23 39.3502 692.86C38.9802 692.49 38.3902 692.49 38.0202 692.86Z" fill="#FFC801"/>
<g filter="url(#filter19_d_5_1580)">
<path d="M1903.23 220.01C1907.16 220.01 1910.34 216.827 1910.34 212.9C1910.34 208.973 1907.16 205.79 1903.23 205.79C1899.3 205.79 1896.12 208.973 1896.12 212.9C1896.12 216.827 1899.3 220.01 1903.23 220.01Z" fill="#FFC801"/>
</g>
<g style="mix-blend-mode:overlay" opacity="0.5">
<path d="M1903.23 220.01C1907.16 220.01 1910.34 216.827 1910.34 212.9C1910.34 208.973 1907.16 205.79 1903.23 205.79C1899.3 205.79 1896.12 208.973 1896.12 212.9C1896.12 216.827 1899.3 220.01 1903.23 220.01Z" fill="#FFC801"/>
</g>
<path d="M1899.03 208.38C1897.61 209.8 1897.21 211.7 1898.14 212.62C1899.06 213.55 1900.96 213.15 1902.38 211.73C1903.8 210.31 1904.2 208.41 1903.27 207.49C1902.34 206.57 1900.45 206.96 1899.03 208.38Z" fill="#FFC801"/>
<path opacity="0.5" d="M1905.46 216.47C1904.67 216.98 1904.3 217.8 1904.63 218.32C1904.96 218.84 1905.87 218.84 1906.66 218.34C1907.45 217.83 1907.82 217.01 1907.49 216.49C1907.16 215.97 1906.25 215.97 1905.46 216.47Z" fill="#FFC801"/>
<path opacity="0.5" d="M1907.78 214.26C1907.41 214.63 1907.41 215.22 1907.78 215.59C1908.15 215.96 1908.74 215.96 1909.11 215.59C1909.48 215.22 1909.48 214.63 1909.11 214.26C1908.74 213.89 1908.15 213.89 1907.78 214.26Z" fill="#FFC801"/>
<g filter="url(#filter20_d_5_1580)">
<path d="M1484.27 29.27C1485.72 29.27 1486.9 28.0925 1486.9 26.64C1486.9 25.1875 1485.72 24.01 1484.27 24.01C1482.82 24.01 1481.64 25.1875 1481.64 26.64C1481.64 28.0925 1482.82 29.27 1484.27 29.27Z" fill="#FFC801"/>
</g>
<g style="mix-blend-mode:overlay" opacity="0.5">
<path d="M1484.27 29.27C1485.72 29.27 1486.9 28.0925 1486.9 26.64C1486.9 25.1875 1485.72 24.01 1484.27 24.01C1482.82 24.01 1481.64 25.1875 1481.64 26.64C1481.64 28.0925 1482.82 29.27 1484.27 29.27Z" fill="#FFC801"/>
</g>
<path d="M1482.72 24.9701C1482.2 25.4901 1482.05 26.2001 1482.39 26.5401C1482.73 26.8801 1483.43 26.7301 1483.96 26.2101C1484.48 25.6901 1484.63 24.9801 1484.29 24.6401C1483.95 24.3001 1483.25 24.4501 1482.72 24.9701Z" fill="#FFC801"/>
<path opacity="0.5" d="M1485.09 27.95C1484.8 28.14 1484.66 28.44 1484.78 28.63C1484.9 28.82 1485.24 28.82 1485.53 28.63C1485.82 28.44 1485.96 28.14 1485.84 27.95C1485.72 27.76 1485.38 27.76 1485.09 27.95Z" fill="#FFC801"/>
<path opacity="0.5" d="M1485.95 27.14C1485.81 27.28 1485.81 27.5 1485.95 27.63C1486.09 27.77 1486.31 27.77 1486.44 27.63C1486.58 27.49 1486.58 27.27 1486.44 27.14C1486.3 27 1486.08 27 1485.95 27.14Z" fill="#FFC801"/>
<defs>
<filter id="filter0_d_5_1580" x="922.31" y="738.99" width="646.05" height="1031.25" filterUnits="userSpaceOnUse" color-interpolation-filters="sRGB">
<feFlood flood-opacity="0" result="BackgroundImageFix"/>
<feColorMatrix in="SourceAlpha" type="matrix" values="0 0 0 0 0 0 0 0 0 0 0 0 0 0 0 0 0 0 127 0" result="hardAlpha"/>
<feOffset dx="-5" dy="5"/>
<feGaussianBlur stdDeviation="3"/>
<feColorMatrix type="matrix" values="0 0 0 0 0.0823529 0 0 0 0 0.0823529 0 0 0 0 0.0980392 0 0 0 0.6 0"/>
<feBlend mode="normal" in2="BackgroundImageFix" result="effect1_dropShadow_5_1580"/>
<feBlend mode="normal" in="SourceGraphic" in2="effect1_dropShadow_5_1580" result="shape"/>
</filter>
<filter id="filter1_d_5_1580" x="490.61" y="-678.91" width="646.05" height="1036.03" filterUnits="userSpaceOnUse" color-interpolation-filters="sRGB">
<feFlood flood-opacity="0" result="BackgroundImageFix"/>
<feColorMatrix in="SourceAlpha" type="matrix" values="0 0 0 0 0 0 0 0 0 0 0 0 0 0 0 0 0 0 127 0" result="hardAlpha"/>
<feOffset dx="-5" dy="5"/>
<feGaussianBlur stdDeviation="3"/>
<feColorMatrix type="matrix" values="0 0 0 0 0.0823529 0 0 0 0 0.0823529 0 0 0 0 0.0980392 0 0 0 0.6 0"/>
<feBlend mode="normal" in2="BackgroundImageFix" result="effect1_dropShadow_5_1580"/>
<feBlend mode="normal" in="SourceGraphic" in2="effect1_dropShadow_5_1580" result="shape"/>
</filter>
<filter id="filter2_d_5_1580" x="850.53" y="812.17" width="8.18001" height="8.29001" filterUnits="userSpaceOnUse" color-interpolation-filters="sRGB">
<feFlood flood-opacity="0" result="BackgroundImageFix"/>
<feColorMatrix in="SourceAlpha" type="matrix" values="0 0 0 0 0 0 0 0 0 0 0 0 0 0 0 0 0 0 127 0" result="hardAlpha"/>
<feOffset dx="-1.05" dy="1.57"/>
<feGaussianBlur stdDeviation="0.73"/>
<feColorMatrix type="matrix" values="0 0 0 0 0.0823529 0 0 0 0 0.0823529 0 0 0 0 0.0980392 0 0 0 0.6 0"/>
<feBlend mode="normal" in2="BackgroundImageFix" result="effect1_dropShadow_5_1580"/>
<feBlend mode="normal" in="SourceGraphic" in2="effect1_dropShadow_5_1580" result="shape"/>
</filter>
<filter id="filter3_d_5_1580" x="707.396" y="184.056" width="22.1817" height="22.4616" filterUnits="userSpaceOnUse" color-interpolation-filters="sRGB">
<feFlood flood-opacity="0" result="BackgroundImageFix"/>
<feColorMatrix in="SourceAlpha" type="matrix" values="0 0 0 0 0 0 0 0 0 0 0 0 0 0 0 0 0 0 127 0" result="hardAlpha"/>
<feOffset dx="-2.84" dy="4.26"/>
<feGaussianBlur stdDeviation="1.99"/>
<feColorMatrix type="matrix" values="0 0 0 0 0.0823529 0 0 0 0 0.0823529 0 0 0 0 0.0980392 0 0 0 0.6 0"/>
<feBlend mode="normal" in2="BackgroundImageFix" result="effect1_dropShadow_5_1580"/>
<feBlend mode="normal" in="SourceGraphic" in2="effect1_dropShadow_5_1580" result="shape"/>
</filter>
<filter id="filter4_d_5_1580" x="301.81" y="409.89" width="22.18" height="22.46" filterUnits="userSpaceOnUse" color-interpolation-filters="sRGB">
<feFlood flood-opacity="0" result="BackgroundImageFix"/>
<feColorMatrix in="SourceAlpha" type="matrix" values="0 0 0 0 0 0 0 0 0 0 0 0 0 0 0 0 0 0 127 0" result="hardAlpha"/>
<feOffset dx="-2.84" dy="4.26"/>
<feGaussianBlur stdDeviation="1.99"/>
<feColorMatrix type="matrix" values="0 0 0 0 0.0823529 0 0 0 0 0.0823529 0 0 0 0 0.0980392 0 0 0 0.6 0"/>
<feBlend mode="normal" in2="BackgroundImageFix" result="effect1_dropShadow_5_1580"/>
<feBlend mode="normal" in="SourceGraphic" in2="effect1_dropShadow_5_1580" result="shape"/>
</filter>
<filter id="filter5_d_5_1580" x="753.7" y="1068.58" width="22.18" height="22.46" filterUnits="userSpaceOnUse" color-interpolation-filters="sRGB">
<feFlood flood-opacity="0" result="BackgroundImageFix"/>
<feColorMatrix in="SourceAlpha" type="matrix" values="0 0 0 0 0 0 0 0 0 0 0 0 0 0 0 0 0 0 127 0" result="hardAlpha"/>
<feOffset dx="-2.84" dy="4.26"/>
<feGaussianBlur stdDeviation="1.99"/>
<feColorMatrix type="matrix" values="0 0 0 0 0.0823529 0 0 0 0 0.0823529 0 0 0 0 0.0980392 0 0 0 0.6 0"/>
<feBlend mode="normal" in2="BackgroundImageFix" result="effect1_dropShadow_5_1580"/>
<feBlend mode="normal" in="SourceGraphic" in2="effect1_dropShadow_5_1580" result="shape"/>
</filter>
<filter id="filter6_d_5_1580" x="422.05" y="964.22" width="22.18" height="22.46" filterUnits="userSpaceOnUse" color-interpolation-filters="sRGB">
<feFlood flood-opacity="0" result="BackgroundImageFix"/>
<feColorMatrix in="SourceAlpha" type="matrix" values="0 0 0 0 0 0 0 0 0 0 0 0 0 0 0 0 0 0 127 0" result="hardAlpha"/>
<feOffset dx="-2.84" dy="4.26"/>
<feGaussianBlur stdDeviation="1.99"/>
<feColorMatrix type="matrix" values="0 0 0 0 0.0823529 0 0 0 0 0.0823529 0 0 0 0 0.0980392 0 0 0 0.6 0"/>
<feBlend mode="normal" in2="BackgroundImageFix" result="effect1_dropShadow_5_1580"/>
<feBlend mode="normal" in="SourceGraphic" in2="effect1_dropShadow_5_1580" result="shape"/>
</filter>
<filter id="filter7_d_5_1580" x="1395.09" y="432.25" width="22.18" height="22.46" filterUnits="userSpaceOnUse" color-interpolation-filters="sRGB">
<feFlood flood-opacity="0" result="BackgroundImageFix"/>
<feColorMatrix in="SourceAlpha" type="matrix" values="0 0 0 0 0 0 0 0 0 0 0 0 0 0 0 0 0 0 127 0" result="hardAlpha"/>
<feOffset dx="-2.84" dy="4.26"/>
<feGaussianBlur stdDeviation="1.99"/>
<feColorMatrix type="matrix" values="0 0 0 0 0.0823529 0 0 0 0 0.0823529 0 0 0 0 0.0980392 0 0 0 0.6 0"/>
<feBlend mode="normal" in2="BackgroundImageFix" result="effect1_dropShadow_5_1580"/>
<feBlend mode="normal" in="SourceGraphic" in2="effect1_dropShadow_5_1580" result="shape"/>
</filter>
<filter id="filter8_d_5_1580" x="516.03" y="696.7" width="22.18" height="22.46" filterUnits="userSpaceOnUse" color-interpolation-filters="sRGB">
<feFlood flood-opacity="0" result="BackgroundImageFix"/>
<feColorMatrix in="SourceAlpha" type="matrix" values="0 0 0 0 0 0 0 0 0 0 0 0 0 0 0 0 0 0 127 0" result="hardAlpha"/>
<feOffset dx="-2.84" dy="4.26"/>
<feGaussianBlur stdDeviation="1.99"/>
<feColorMatrix type="matrix" values="0 0 0 0 0.0823529 0 0 0 0 0.0823529 0 0 0 0 0.0980392 0 0 0 0.6 0"/>
<feBlend mode="normal" in2="BackgroundImageFix" result="effect1_dropShadow_5_1580"/>
<feBlend mode="normal" in="SourceGraphic" in2="effect1_dropShadow_5_1580" result="shape"/>
</filter>
<filter id="filter9_d_5_1580" x="1858.86" y="709.98" width="22.18" height="22.46" filterUnits="userSpaceOnUse" color-interpolation-filters="sRGB">
<feFlood flood-opacity="0" result="BackgroundImageFix"/>
<feColorMatrix in="SourceAlpha" type="matrix" values="0 0 0 0 0 0 0 0 0 0 0 0 0 0 0 0 0 0 127 0" result="hardAlpha"/>
<feOffset dx="-2.84" dy="4.26"/>
<feGaussianBlur stdDeviation="1.99"/>
<feColorMatrix type="matrix" values="0 0 0 0 0.0823529 0 0 0 0 0.0823529 0 0 0 0 0.0980392 0 0 0 0.6 0"/>
<feBlend mode="normal" in2="BackgroundImageFix" result="effect1_dropShadow_5_1580"/>
<feBlend mode="normal" in="SourceGraphic" in2="effect1_dropShadow_5_1580" result="shape"/>
</filter>
<filter id="filter10_d_5_1580" x="-10.9001" y="231.39" width="22.18" height="22.46" filterUnits="userSpaceOnUse" color-interpolation-filters="sRGB">
<feFlood flood-opacity="0" result="BackgroundImageFix"/>
<feColorMatrix in="SourceAlpha" type="matrix" values="0 0 0 0 0 0 0 0 0 0 0 0 0 0 0 0 0 0 127 0" result="hardAlpha"/>
<feOffset dx="-2.84" dy="4.26"/>
<feGaussianBlur stdDeviation="1.99"/>
<feColorMatrix type="matrix" values="0 0 0 0 0.0823529 0 0 0 0 0.0823529 0 0 0 0 0.0980392 0 0 0 0.6 0"/>
<feBlend mode="normal" in2="BackgroundImageFix" result="effect1_dropShadow_5_1580"/>
<feBlend mode="normal" in="SourceGraphic" in2="effect1_dropShadow_5_1580" result="shape"/>
</filter>
<filter id="filter11_d_5_1580" x="416.85" y="49.6101" width="8.18001" height="8.29001" filterUnits="userSpaceOnUse" color-interpolation-filters="sRGB">
<feFlood flood-opacity="0" result="BackgroundImageFix"/>
<feColorMatrix in="SourceAlpha" type="matrix" values="0 0 0 0 0 0 0 0 0 0 0 0 0 0 0 0 0 0 127 0" result="hardAlpha"/>
<feOffset dx="-1.05" dy="1.57"/>
<feGaussianBlur stdDeviation="0.73"/>
<feColorMatrix type="matrix" values="0 0 0 0 0.0823529 0 0 0 0 0.0823529 0 0 0 0 0.0980392 0 0 0 0.6 0"/>
<feBlend mode="normal" in2="BackgroundImageFix" result="effect1_dropShadow_5_1580"/>
<feBlend mode="normal" in="SourceGraphic" in2="effect1_dropShadow_5_1580" result="shape"/>
</filter>
<filter id="filter12_d_5_1580" x="1171" y="158.447" width="22.1817" height="22.4616" filterUnits="userSpaceOnUse" color-interpolation-filters="sRGB">
<feFlood flood-opacity="0" result="BackgroundImageFix"/>
<feColorMatrix in="SourceAlpha" type="matrix" values="0 0 0 0 0 0 0 0 0 0 0 0 0 0 0 0 0 0 127 0" result="hardAlpha"/>
<feOffset dx="-2.84" dy="4.26"/>
<feGaussianBlur stdDeviation="1.99"/>
<feColorMatrix type="matrix" values="0 0 0 0 0.0823529 0 0 0 0 0.0823529 0 0 0 0 0.0980392 0 0 0 0.6 0"/>
<feBlend mode="normal" in2="BackgroundImageFix" result="effect1_dropShadow_5_1580"/>
<feBlend mode="normal" in="SourceGraphic" in2="effect1_dropShadow_5_1580" result="shape"/>
</filter>
<filter id="filter13_d_5_1580" x="1576.59" y="384.29" width="22.18" height="22.4601" filterUnits="userSpaceOnUse" color-interpolation-filters="sRGB">
<feFlood flood-opacity="0" result="BackgroundImageFix"/>
<feColorMatrix in="SourceAlpha" type="matrix" values="0 0 0 0 0 0 0 0 0 0 0 0 0 0 0 0 0 0 127 0" result="hardAlpha"/>
<feOffset dx="-2.84" dy="4.26"/>
<feGaussianBlur stdDeviation="1.99"/>
<feColorMatrix type="matrix" values="0 0 0 0 0.0823529 0 0 0 0 0.0823529 0 0 0 0 0.0980392 0 0 0 0.6 0"/>
<feBlend mode="normal" in2="BackgroundImageFix" result="effect1_dropShadow_5_1580"/>
<feBlend mode="normal" in="SourceGraphic" in2="effect1_dropShadow_5_1580" result="shape"/>
</filter>
<filter id="filter14_d_5_1580" x="1124.71" y="1042.98" width="22.18" height="22.46" filterUnits="userSpaceOnUse" color-interpolation-filters="sRGB">
<feFlood flood-opacity="0" result="BackgroundImageFix"/>
<feColorMatrix in="SourceAlpha" type="matrix" values="0 0 0 0 0 0 0 0 0 0 0 0 0 0 0 0 0 0 127 0" result="hardAlpha"/>
<feOffset dx="-2.84" dy="4.26"/>
<feGaussianBlur stdDeviation="1.99"/>
<feColorMatrix type="matrix" values="0 0 0 0 0.0823529 0 0 0 0 0.0823529 0 0 0 0 0.0980392 0 0 0 0.6 0"/>
<feBlend mode="normal" in2="BackgroundImageFix" result="effect1_dropShadow_5_1580"/>
<feBlend mode="normal" in="SourceGraphic" in2="effect1_dropShadow_5_1580" result="shape"/>
</filter>
<filter id="filter15_d_5_1580" x="1456.36" y="938.61" width="22.18" height="22.46" filterUnits="userSpaceOnUse" color-interpolation-filters="sRGB">
<feFlood flood-opacity="0" result="BackgroundImageFix"/>
<feColorMatrix in="SourceAlpha" type="matrix" values="0 0 0 0 0 0 0 0 0 0 0 0 0 0 0 0 0 0 127 0" result="hardAlpha"/>
<feOffset dx="-2.84" dy="4.26"/>
<feGaussianBlur stdDeviation="1.99"/>
<feColorMatrix type="matrix" values="0 0 0 0 0.0823529 0 0 0 0 0.0823529 0 0 0 0 0.0980392 0 0 0 0.6 0"/>
<feBlend mode="normal" in2="BackgroundImageFix" result="effect1_dropShadow_5_1580"/>
<feBlend mode="normal" in="SourceGraphic" in2="effect1_dropShadow_5_1580" result="shape"/>
</filter>
<filter id="filter16_d_5_1580" x="483.31" y="406.65" width="22.18" height="22.46" filterUnits="userSpaceOnUse" color-interpolation-filters="sRGB">
<feFlood flood-opacity="0" result="BackgroundImageFix"/>
<feColorMatrix in="SourceAlpha" type="matrix" values="0 0 0 0 0 0 0 0 0 0 0 0 0 0 0 0 0 0 127 0" result="hardAlpha"/>
<feOffset dx="-2.84" dy="4.26"/>
<feGaussianBlur stdDeviation="1.99"/>
<feColorMatrix type="matrix" values="0 0 0 0 0.0823529 0 0 0 0 0.0823529 0 0 0 0 0.0980392 0 0 0 0.6 0"/>
<feBlend mode="normal" in2="BackgroundImageFix" result="effect1_dropShadow_5_1580"/>
<feBlend mode="normal" in="SourceGraphic" in2="effect1_dropShadow_5_1580" result="shape"/>
</filter>
<filter id="filter17_d_5_1580" x="1362.37" y="671.1" width="22.18" height="22.46" filterUnits="userSpaceOnUse" color-interpolation-filters="sRGB">
<feFlood flood-opacity="0" result="BackgroundImageFix"/>
<feColorMatrix in="SourceAlpha" type="matrix" values="0 0 0 0 0 0 0 0 0 0 0 0 0 0 0 0 0 0 127 0" result="hardAlpha"/>
<feOffset dx="-2.84" dy="4.26"/>
<feGaussianBlur stdDeviation="1.99"/>
<feColorMatrix type="matrix" values="0 0 0 0 0.0823529 0 0 0 0 0.0823529 0 0 0 0 0.0980392 0 0 0 0.6 0"/>
<feBlend mode="normal" in2="BackgroundImageFix" result="effect1_dropShadow_5_1580"/>
<feBlend mode="normal" in="SourceGraphic" in2="effect1_dropShadow_5_1580" result="shape"/>
</filter>
<filter id="filter18_d_5_1580" x="19.5501" y="684.38" width="22.18" height="22.46" filterUnits="userSpaceOnUse" color-interpolation-filters="sRGB">
<feFlood flood-opacity="0" result="BackgroundImageFix"/>
<feColorMatrix in="SourceAlpha" type="matrix" values="0 0 0 0 0 0 0 0 0 0 0 0 0 0 0 0 0 0 127 0" result="hardAlpha"/>
<feOffset dx="-2.84" dy="4.26"/>
<feGaussianBlur stdDeviation="1.99"/>
<feColorMatrix type="matrix" values="0 0 0 0 0.0823529 0 0 0 0 0.0823529 0 0 0 0 0.0980392 0 0 0 0.6 0"/>
<feBlend mode="normal" in2="BackgroundImageFix" result="effect1_dropShadow_5_1580"/>
<feBlend mode="normal" in="SourceGraphic" in2="effect1_dropShadow_5_1580" result="shape"/>
</filter>
<filter id="filter19_d_5_1580" x="1889.3" y="205.79" width="22.1802" height="22.46" filterUnits="userSpaceOnUse" color-interpolation-filters="sRGB">
<feFlood flood-opacity="0" result="BackgroundImageFix"/>
<feColorMatrix in="SourceAlpha" type="matrix" values="0 0 0 0 0 0 0 0 0 0 0 0 0 0 0 0 0 0 127 0" result="hardAlpha"/>
<feOffset dx="-2.84" dy="4.26"/>
<feGaussianBlur stdDeviation="1.99"/>
<feColorMatrix type="matrix" values="0 0 0 0 0.0823529 0 0 0 0 0.0823529 0 0 0 0 0.0980392 0 0 0 0.6 0"/>
<feBlend mode="normal" in2="BackgroundImageFix" result="effect1_dropShadow_5_1580"/>
<feBlend mode="normal" in="SourceGraphic" in2="effect1_dropShadow_5_1580" result="shape"/>
</filter>
<filter id="filter20_d_5_1580" x="1479.13" y="24.01" width="8.18001" height="8.29001" filterUnits="userSpaceOnUse" color-interpolation-filters="sRGB">
<feFlood flood-opacity="0" result="BackgroundImageFix"/>
<feColorMatrix in="SourceAlpha" type="matrix" values="0 0 0 0 0 0 0 0 0 0 0 0 0 0 0 0 0 0 127 0" result="hardAlpha"/>
<feOffset dx="-1.05" dy="1.57"/>
<feGaussianBlur stdDeviation="0.73"/>
<feColorMatrix type="matrix" values="0 0 0 0 0.0823529 0 0 0 0 0.0823529 0 0 0 0 0.0980392 0 0 0 0.6 0"/>
<feBlend mode="normal" in2="BackgroundImageFix" result="effect1_dropShadow_5_1580"/>
<feBlend mode="normal" in="SourceGraphic" in2="effect1_dropShadow_5_1580" result="shape"/>
</filter>
<radialGradient id="paint0_radial_5_1580" cx="0" cy="0" r="1" gradientUnits="userSpaceOnUse" gradientTransform="translate(855.611 815.79) rotate(16.69) scale(3.50001 3.32501)">
<stop stop-color="#E4C54C"/>
<stop offset="0.21" stop-color="#DBB543"/>
<stop offset="0.62" stop-color="#C48C2D"/>
<stop offset="1" stop-color="#AD6217"/>
</radialGradient>
<radialGradient id="paint1_radial_5_1580" cx="0" cy="0" r="1" gradientUnits="userSpaceOnUse" gradientTransform="translate(857.648 808.602) rotate(16.69) scale(3.18001 3.75241)">
<stop offset="0.57" stop-color="white" stop-opacity="0"/>
<stop offset="0.6" stop-color="white" stop-opacity="0.06"/>
<stop offset="0.65" stop-color="white" stop-opacity="0.23"/>
<stop offset="0.73" stop-color="white" stop-opacity="0.5"/>
<stop offset="0.82" stop-color="white" stop-opacity="0.86"/>
<stop offset="0.86" stop-color="white"/>
<stop offset="0.87" stop-color="white" stop-opacity="0.97"/>
<stop offset="0.89" stop-color="white" stop-opacity="0.89"/>
<stop offset="0.91" stop-color="white" stop-opacity="0.76"/>
<stop offset="0.94" stop-color="white" stop-opacity="0.58"/>
<stop offset="0.96" stop-color="white" stop-opacity="0.35"/>
<stop offset="0.99" stop-color="white" stop-opacity="0.07"/>
<stop offset="1" stop-color="white" stop-opacity="0"/>
</radialGradient>
<radialGradient id="paint2_radial_5_1580" cx="0" cy="0" r="1" gradientUnits="userSpaceOnUse" gradientTransform="translate(855.186 812.229) rotate(-40.47) scale(0.860005 1.26421)">
<stop stop-color="#F7EB85"/>
<stop offset="1" stop-color="#F7EB85" stop-opacity="0"/>
</radialGradient>
<radialGradient id="paint3_radial_5_1580" cx="0" cy="0" r="1" gradientUnits="userSpaceOnUse" gradientTransform="translate(853.156 815.391) rotate(-52.8781) scale(0.399982 0.587984)">
<stop stop-color="#F7EB85"/>
<stop offset="1" stop-color="#F7EB85" stop-opacity="0"/>
</radialGradient>
<radialGradient id="paint4_radial_5_1580" cx="0" cy="0" r="1" gradientUnits="userSpaceOnUse" gradientTransform="translate(902.496 769.067) rotate(-42.04) scale(0.339995 0.326395)">
<stop stop-color="#F7EB85"/>
<stop offset="1" stop-color="#F7EB85" stop-opacity="0"/>
</radialGradient>
</defs>
</svg>
